<svg width="22" height="22" viewBox="0 0 22 22" fill="none" xmlns="http://www.w3.org/2000/svg">
<path d="M10.8442 8.25L13.7501 11.1467V11C13.7501 10.2707 13.4603 9.57118 12.9446 9.05546C12.4289 8.53973 11.7294 8.25 11.0001 8.25H10.8442ZM6.90258 8.98333L8.32341 10.4042C8.27758 10.5967 8.25008 10.7892 8.25008 11C8.25008 11.7293 8.53981 12.4288 9.05554 12.9445C9.57126 13.4603 10.2707 13.75 11.0001 13.75C11.2017 13.75 11.4034 13.7225 11.5959 13.6767L13.0167 15.0975C12.4026 15.4 11.7242 15.5833 11.0001 15.5833C9.78451 15.5833 8.61872 15.1004 7.75918 14.2409C6.89963 13.3814 6.41675 12.2156 6.41675 11C6.41675 10.2758 6.60008 9.5975 6.90258 8.98333ZM1.83341 3.91417L3.92341 6.00417L4.33591 6.41667C2.82341 7.60833 1.63175 9.16667 0.916748 11C2.50258 15.0242 6.41675 17.875 11.0001 17.875C12.4209 17.875 13.7776 17.6 15.0151 17.105L15.4092 17.49L18.0859 20.1667L19.2501 19.0025L2.99758 2.75M11.0001 6.41667C12.2157 6.41667 13.3814 6.89955 14.241 7.75909C15.1005 8.61864 15.5834 9.78443 15.5834 11C15.5834 11.5867 15.4642 12.155 15.2534 12.6683L17.9392 15.3542C19.3142 14.2083 20.4142 12.705 21.0834 11C19.4976 6.97583 15.5834 4.125 11.0001 4.125C9.71675 4.125 8.48841 4.35417 7.33341 4.76667L9.32258 6.7375C9.84508 6.53583 10.4042 6.41667 11.0001 6.41667Z" fill="#454545"/>
</svg>
