<svg width="473" height="458" viewBox="0 0 473 458" fill="none" xmlns="http://www.w3.org/2000/svg">
<g clip-path="url(#clip0_2007_571)">
<path d="M339.093 458C413.048 458 473 452.469 473 445.646C473 438.823 413.048 433.292 339.093 433.292C265.139 433.292 205.187 438.823 205.187 445.646C205.187 452.469 265.139 458 339.093 458Z" fill="white"/>
<path opacity="0.1" d="M339.093 458C413.048 458 473 452.469 473 445.646C473 438.823 413.048 433.292 339.093 433.292C265.139 433.292 205.187 438.823 205.187 445.646C205.187 452.469 265.139 458 339.093 458Z" fill="#292A2E"/>
<path d="M116.803 261.933H74.1194V274.35H116.803V261.933Z" fill="#F4F4F4"/>
<path opacity="0.05" d="M85.4442 261.932H79.8514V274.35H85.4442V261.932Z" fill="#292A2E"/>
<path d="M111.349 264.631H88.0936V271.989H111.349V264.631Z" fill="white"/>
<path d="M150.848 263.553L111.188 246.233L106.217 257.613L145.877 274.932L150.848 263.553Z" fill="#F4F4F4"/>
<path opacity="0.05" d="M150.848 263.553L111.188 246.233L106.217 257.613L145.877 274.932L150.848 263.553Z" fill="#292A2E"/>
<path d="M145.522 261.227L140.326 258.957L135.355 270.336L140.552 272.606L145.522 261.227Z" fill="white"/>
<path d="M136.783 260.356L115.175 250.92L112.23 257.663L133.837 267.099L136.783 260.356Z" fill="white"/>
<path opacity="0.05" d="M150.923 419.233H140.196V426.396H150.923V419.233Z" fill="#292A2E"/>
<path opacity="0.05" d="M41.257 419.233H30.5306V426.396H41.257V419.233Z" fill="#292A2E"/>
<path d="M160.755 274.932H20.6986V418.991H160.755V274.932Z" fill="#F4F4F4"/>
<path opacity="0.03" d="M160.755 274.932H20.6986V418.991H160.755V274.932Z" fill="#292A2E"/>
<path d="M186.71 274.932H46.6531V418.991H186.71V274.932Z" fill="#F4F4F4"/>
<path opacity="0.05" d="M176.877 419.233H166.151V426.396H176.877V419.233Z" fill="#292A2E"/>
<path opacity="0.05" d="M67.2121 419.233H56.4857V426.396H67.2121V419.233Z" fill="#292A2E"/>
<path opacity="0.7" d="M181.453 281.679H51.911V309.356H181.453V281.679Z" fill="white"/>
<path opacity="0.7" d="M181.453 316.13H51.911V343.807H181.453V316.13Z" fill="white"/>
<path opacity="0.7" d="M181.453 350.581H51.911V378.257H181.453V350.581Z" fill="white"/>
<path opacity="0.05" d="M116.682 299.39C118.821 299.39 120.555 297.656 120.555 295.518C120.555 293.379 118.821 291.645 116.682 291.645C114.543 291.645 112.809 293.379 112.809 295.518C112.809 297.656 114.543 299.39 116.682 299.39Z" fill="#292A2E"/>
<path opacity="0.05" d="M116.682 333.841C118.821 333.841 120.555 332.107 120.555 329.968C120.555 327.83 118.821 326.096 116.682 326.096C114.543 326.096 112.809 327.83 112.809 329.968C112.809 332.107 114.543 333.841 116.682 333.841Z" fill="#292A2E"/>
<path opacity="0.05" d="M116.682 368.292C118.821 368.292 120.555 366.558 120.555 364.42C120.555 362.281 118.821 360.547 116.682 360.547C114.543 360.547 112.809 362.281 112.809 364.42C112.809 366.558 114.543 368.292 116.682 368.292Z" fill="#292A2E"/>
<path opacity="0.7" d="M181.453 385.808H51.911V413.485H181.453V385.808Z" fill="white"/>
<path opacity="0.05" d="M116.682 403.519C118.821 403.519 120.555 401.785 120.555 399.647C120.555 397.508 118.821 395.774 116.682 395.774C114.543 395.774 112.809 397.508 112.809 399.647C112.809 401.785 114.543 403.519 116.682 403.519Z" fill="#292A2E"/>
<path d="M70.4162 131.947H153.233V24.1692L70.4162 24.1692L70.4162 131.947Z" fill="#F4F4F4"/>
<path d="M70.4167 24.1692H67.7301V131.947H70.4167V24.1692Z" fill="#F4F4F4"/>
<path opacity="0.05" d="M70.4167 24.1692H67.7301V131.947H70.4167V24.1692Z" fill="#292A2E"/>
<path opacity="0.05" d="M85.5029 112.313H138.147V43.8017H85.5029V112.313Z" fill="#292A2E"/>
<path opacity="0.03" d="M85.5031 112.313H88.2466L88.2466 43.8017H85.5031L85.5031 112.313Z" fill="#292A2E"/>
<path d="M2.68613 226.792H70.4163L70.4163 158.45H2.68613L2.68613 226.792Z" fill="#F4F4F4"/>
<path opacity="0.05" d="M15.0241 214.342H58.0782L58.0782 170.9H15.0241L15.0241 214.342Z" fill="#292A2E"/>
<path d="M2.68663 158.451H0V226.792H2.68663V158.451Z" fill="#F4F4F4"/>
<path opacity="0.05" d="M2.68663 158.451H0V226.792H2.68663V158.451Z" fill="#292A2E"/>
<path opacity="0.03" d="M15.0241 214.342H17.7676L17.7676 170.9H15.0241L15.0241 214.342Z" fill="#292A2E"/>
<path d="M415.695 23.9126H242.871V196.708H415.695V23.9126Z" fill="#F4F4F4"/>
<path d="M242.871 23.9126H240.89V196.708H242.871V23.9126Z" fill="#F4F4F4"/>
<path opacity="0.05" d="M242.871 23.9126H240.89V196.708H242.871V23.9126Z" fill="#292A2E"/>
<path opacity="0.05" d="M284.739 142.983V97.7737H321.778V124.039H379.151V170.546H403.536V196.708H379.151H374.453H251.184V142.983H284.739Z" fill="#292A2E"/>
<path opacity="0.34" d="M317.023 102.682H290.051V107.591H317.023V102.682Z" fill="#FFFFFA"/>
<path opacity="0.34" d="M317.023 112.854H290.051V117.763H317.023V112.854Z" fill="#FFFFFA"/>
<path opacity="0.34" d="M317.023 123.026H290.051V127.935H317.023V123.026Z" fill="#FFFFFA"/>
<path opacity="0.34" d="M260.939 147.748H255.967V152.656H260.939V147.748Z" fill="#FFFFFA"/>
<path opacity="0.34" d="M260.939 157.92H255.967V162.828H260.939V157.92Z" fill="#FFFFFA"/>
<path opacity="0.34" d="M260.939 168.091H255.967V173H260.939V168.091Z" fill="#FFFFFA"/>
<path opacity="0.34" d="M270.136 147.748H265.164V152.656H270.136V147.748Z" fill="#FFFFFA"/>
<path opacity="0.34" d="M270.136 157.92H265.164V162.828H270.136V157.92Z" fill="#FFFFFA"/>
<path opacity="0.34" d="M270.136 168.091H265.164V173H270.136V168.091Z" fill="#FFFFFA"/>
<path opacity="0.34" d="M279.084 147.748H274.113V152.656H279.084V147.748Z" fill="#FFFFFA"/>
<path opacity="0.34" d="M279.084 157.92H274.113V162.828H279.084V157.92Z" fill="#FFFFFA"/>
<path opacity="0.34" d="M279.084 168.091H274.113V173H279.084V168.091Z" fill="#FFFFFA"/>
<path d="M242.871 109.341H277.646V23.9121H280.522V109.341H374.453V23.9121H377.329V109.341H415.695V112.216H377.329V196.708H374.453V112.216H280.522V196.708H277.646V112.216H242.871V109.341Z" fill="white"/>
<path d="M422.58 196.5H235.986V202.246H422.58V196.5Z" fill="#F4F4F4"/>
<path opacity="0.1" d="M422.58 196.5H235.986V202.246H422.58V196.5Z" fill="#292A2E"/>
<path opacity="0.1" d="M235.986 196.5H233.292V202.246H235.986V196.5Z" fill="#292A2E"/>
<path opacity="0.1" d="M235.986 196.5H233.292V202.246H235.986V196.5Z" fill="#292A2E"/>
<path d="M386.061 226.102C359.603 226.102 338.154 233.319 338.154 242.221V261.412H433.969V242.221C433.969 233.319 412.52 226.102 386.061 226.102Z" fill="#367CFF"/>
<path opacity="0.49" d="M386.061 226.102C359.603 226.102 338.154 233.319 338.154 242.221V261.412H433.969V242.221C433.969 233.319 412.52 226.102 386.061 226.102Z" fill="white"/>
<path opacity="0.49" d="M420.917 242.224V261.411H338.151V242.224C338.151 234.064 356.165 227.321 379.534 226.255C402.905 227.321 420.917 234.064 420.917 242.224Z" fill="white"/>
<path d="M433.967 447.88H435.575L433.967 259.71L432.373 261.318L433.51 392.76L376.752 393.724L375.607 261.304L374.013 261.318L375.158 393.751L340.896 394.333L339.745 261.304L338.151 259.724L339.759 447.88L341.339 447.867L340.909 395.928L375.171 395.345L375.607 447.88L377.201 447.867L376.766 395.318L433.523 394.353L433.967 447.88Z" fill="#292A2E"/>
<path d="M289.461 419.708C289.461 419.708 286.612 434.474 272.784 435.297C258.956 436.12 261.955 447.134 261.955 447.134H314.797V420.738L289.461 419.708Z" fill="#E98862"/>
<path d="M319.61 375.295C319.61 375.295 323.572 389.802 311.528 396.643C299.484 403.485 307.037 412.044 307.037 412.044L354.452 388.721L342.799 365.035L319.61 375.295Z" fill="#E98862"/>
<path d="M314.593 384.883L278.866 250.101C276.156 235.211 280.236 228.757 286.522 222.488C297.567 211.472 343.335 188.028 343.335 188.028L398.242 187.878C412.802 187.878 427.114 202.232 427.114 216.788C427.114 231.344 412.313 243.689 397.754 243.689L330.141 250.436L348.469 373.847L314.593 384.883Z" fill="#262626"/>
<path d="M348.468 373.846L341.253 325.261L304.698 347.556L314.593 384.883L348.468 373.846Z" fill="#0C0C0C"/>
<path d="M356.754 215.302C356.754 215.302 333.673 220.445 310.813 243.301C296.953 257.159 298.09 282.236 300.169 330.468L322.873 296.938L347.776 252.033L356.754 215.302Z" fill="#0C0C0C"/>
<path d="M436.672 187.863L399.383 187.687L399.369 188.178H388.078C388.078 188.178 359.794 214.198 337.025 230.595C320.462 242.522 310.358 253.892 309.484 266.285C307.352 296.495 283.314 425.334 283.314 425.334L319.491 430.811L351.239 276.838C351.239 276.838 400.88 253.955 412.363 245.994C423.175 238.496 430.813 235.597 434.391 227.414C440.57 213.281 436.672 187.863 436.672 187.863Z" fill="#262626"/>
<path d="M394.838 197.253L334.347 198.055L368.28 218.318L396.515 203.74C397.195 203.375 397.733 202.792 398.043 202.084C398.352 201.377 398.416 200.586 398.222 199.839C398.029 199.091 397.591 198.43 396.977 197.962C396.364 197.493 395.61 197.243 394.838 197.253Z" fill="#292A2E"/>
<path opacity="0.2" d="M394.838 197.253L334.347 198.055L368.28 218.318L396.515 203.74C397.195 203.375 397.733 202.792 398.043 202.084C398.352 201.377 398.416 200.586 398.222 199.839C398.029 199.091 397.591 198.43 396.977 197.962C396.364 197.493 395.61 197.243 394.838 197.253Z" fill="white"/>
<path d="M334.693 88.749L317.583 144.179L283.312 189.042L303.331 212.019L344.103 166.52C345.982 165.036 347.451 163.097 348.373 160.888L349.008 159.351L372.558 102.379L334.693 88.749Z" fill="#EFBC81"/>
<path d="M361.051 29.9114C361.051 29.9114 354.156 24.7048 352.449 12.7295C351.125 3.45699 359.681 9.46425 359.681 9.46425C359.681 9.46425 358.793 2.778 363.666 3.44158C368.539 4.10516 371.265 11.1288 371.265 11.1288" fill="#0C0C0C"/>
<path d="M388.848 4.22437C388.848 4.22437 413.022 6.81545 404.283 39.5682L402.144 39.7117L397.802 40.0028" fill="#0C0C0C"/>
<path d="M365.1 73.7733C365.206 73.7595 366.386 93.3247 389.118 91.6208C404.858 90.4419 410.47 73.7457 410.83 73.7457C409.134 73.385 407.036 72.8378 406.203 72.6502C404.386 72.2287 402.741 71.2643 401.487 69.8851C400.232 68.5059 399.426 66.7774 399.178 64.9296C398.718 62.1562 399.497 47.9667 399.258 45.1604L375.101 50.5519C375.439 56.4789 377.802 70.2185 369.522 72.6502C368.143 73.0519 366.658 73.4238 365.1 73.7733Z" fill="#E98862"/>
<path opacity="0.52" d="M374.763 67.0351C375.141 65.8156 375.385 64.5583 375.49 63.2858C375.755 60.382 375.701 57.458 375.33 54.5658C380.241 53.9042 384.868 51.8785 388.684 48.719C389.133 50.3755 391.6 57.6138 390.916 59.1853C389.626 62.1605 383.558 67.0351 374.763 67.0351Z" fill="#0C0C0C"/>
<path d="M379.749 63.1626C389.28 62.3077 400.688 56.2866 400.853 43.3503L401.001 31.678C401.166 18.7422 394.504 8.16905 382.322 8.01391C370.14 7.85931 360.901 18.23 360.736 31.1663L360.671 36.3336C360.679 38.1083 360.809 39.8804 361.058 41.6375C361.683 46.2862 362.652 53.3539 365.807 58.135C368.787 62.6488 373.66 63.7082 379.749 63.1626Z" fill="#E98862"/>
<path opacity="0.52" d="M375.327 51.3382C373.36 51.4273 371.399 51.053 369.604 50.2454C369.53 50.2122 369.473 50.1517 369.444 50.0768C369.414 50.0018 369.416 49.9184 369.447 49.8444C369.479 49.7704 369.538 49.7117 369.612 49.6809C369.687 49.6501 369.77 49.6496 369.845 49.6795C373.714 51.3292 377.227 51.088 380.004 48.9814C380.06 48.9371 380.118 48.8958 380.178 48.8576C380.248 48.8248 380.327 48.8194 380.401 48.8425C380.475 48.8656 380.537 48.9156 380.575 48.9824C380.614 49.0493 380.626 49.1282 380.609 49.2035C380.592 49.2788 380.547 49.345 380.484 49.3889C380.462 49.4027 380.426 49.4309 380.378 49.4691C378.918 50.5811 377.159 51.2319 375.327 51.3382Z" fill="#0C0C0C"/>
<path opacity="0.52" d="M375.417 54.2525C375.061 54.2744 374.705 54.2658 374.351 54.227C374.311 54.2227 374.272 54.2106 374.236 54.1913C374.201 54.172 374.17 54.1459 374.144 54.1146C374.119 54.0832 374.1 54.0471 374.089 54.0084C374.077 53.9697 374.073 53.9292 374.078 53.8891C374.082 53.8489 374.094 53.8101 374.113 53.7746C374.133 53.7392 374.159 53.7079 374.19 53.6825C374.221 53.6572 374.258 53.6382 374.296 53.6268C374.335 53.6154 374.375 53.6117 374.416 53.616C376.544 53.8418 377.561 52.8669 377.604 52.8249C377.661 52.7672 377.74 52.7347 377.821 52.7346C377.903 52.7345 377.981 52.7668 378.039 52.8244C378.096 52.8819 378.129 52.96 378.129 53.0415C378.129 53.123 378.097 53.2013 378.039 53.259C377.306 53.8831 376.379 54.2341 375.417 54.2525Z" fill="#0C0C0C"/>
<path d="M364.76 38.821C365.588 38.821 366.26 38.1493 366.26 37.3207C366.26 36.492 365.588 35.8203 364.76 35.8203C363.931 35.8203 363.259 36.492 363.259 37.3207C363.259 38.1493 363.931 38.821 364.76 38.821Z" fill="#0C0C0C"/>
<path d="M379.42 37.9013C380.248 37.9013 380.92 37.2296 380.92 36.401C380.92 35.5724 380.248 34.9006 379.42 34.9006C378.591 34.9006 377.919 35.5724 377.919 36.401C377.919 37.2296 378.591 37.9013 379.42 37.9013Z" fill="#0C0C0C"/>
<path d="M400.047 47.2845C403.749 47.3317 406.8 43.4098 406.848 39.7083C406.897 36.0068 403.92 33.9274 400.218 33.8806L398.279 36.3362L396.865 47.2441L400.047 47.2845Z" fill="#E98862"/>
<path d="M396.363 41.3342C396.363 41.3342 395.113 23.0297 389.562 21.8991C385.864 21.1463 376.898 26.3901 368.593 24.8064C364.96 24.1157 361.511 25.0125 361.161 26.7285C361.021 27.4081 358.758 17.6435 364.448 10.2353C368.978 4.33799 383.801 2.66975 390.546 4.60364C409.22 9.96007 400.98 34.6835 400.98 34.6835L400.147 40.9941L396.363 41.3342Z" fill="#0C0C0C"/>
<g opacity="0.52">
<path d="M373.089 47.0189C373.081 47.0194 373.073 47.0194 373.065 47.0189C371.873 47.0072 369.872 46.8536 369.88 45.9616C369.889 45.2221 371.993 37.2618 372.233 36.3565C372.254 36.2786 372.305 36.212 372.374 36.1715C372.444 36.131 372.527 36.1199 372.605 36.1405C372.683 36.1611 372.75 36.2119 372.79 36.2816C372.831 36.3513 372.842 36.4342 372.821 36.5121C371.886 40.0378 370.494 45.4654 370.488 45.969C370.604 46.1816 371.836 46.4004 373.071 46.4132C373.149 46.4149 373.223 46.4464 373.278 46.5012C373.334 46.5561 373.366 46.6301 373.368 46.708C373.37 46.7859 373.343 46.8617 373.291 46.9197C373.239 46.9778 373.167 47.0136 373.089 47.0199V47.0189Z" fill="#0C0C0C"/>
</g>
<path d="M369.019 29.1858C367.765 28.8407 366.441 28.8407 365.187 29.1858C364.572 29.3514 363.984 29.6086 363.445 29.9487C362.911 30.2818 362.422 30.6809 361.989 31.1367C361.909 31.2178 361.864 31.3267 361.862 31.4406C361.86 31.5545 361.903 31.6646 361.98 31.7481C362.057 31.8316 362.164 31.882 362.278 31.8888C362.392 31.8957 362.504 31.8584 362.59 31.7848L362.618 31.7615C363.019 31.39 363.465 31.0706 363.946 30.811C364.418 30.5525 364.926 30.367 365.454 30.2606C366.492 30.0429 367.569 30.1032 368.576 30.4354L368.618 30.4502C368.783 30.5034 368.962 30.4901 369.118 30.4133C369.273 30.3365 369.392 30.2021 369.45 30.0388C369.507 29.8755 369.499 29.6961 369.427 29.5388C369.354 29.3815 369.223 29.2586 369.062 29.1964L369.019 29.1858Z" fill="#0C0C0C"/>
<path d="M377.897 29.9385C378.851 29.475 379.911 29.2718 380.969 29.3493C381.505 29.3842 382.034 29.5002 382.536 29.6936C383.046 29.8873 383.531 30.1443 383.977 30.4586L384.006 30.4778C384.102 30.5395 384.218 30.5619 384.33 30.5402C384.442 30.5185 384.541 30.4544 384.607 30.3613C384.673 30.2681 384.7 30.1531 384.683 30.0403C384.667 29.9275 384.607 29.8256 384.517 29.7557C384.026 29.3618 383.489 29.0314 382.916 28.7723C382.336 28.5071 381.719 28.3306 381.087 28.2485C379.798 28.0729 378.486 28.2486 377.289 28.7569C377.209 28.7918 377.136 28.8422 377.076 28.9051C377.015 28.968 376.967 29.0423 376.935 29.1237C376.903 29.2051 376.887 29.292 376.889 29.3795C376.89 29.467 376.909 29.5533 376.944 29.6335C377.014 29.7956 377.146 29.923 377.311 29.9878C377.392 30.0198 377.479 30.0356 377.567 30.034C377.654 30.0325 377.74 30.0138 377.821 29.9789L377.858 29.9614L377.897 29.9385Z" fill="#0C0C0C"/>
<path d="M377.289 10.3187C378.132 6.28614 376.593 2.55304 373.853 1.98062C371.113 1.4082 368.208 4.21321 367.366 8.24578C366.523 12.2783 368.061 16.0114 370.802 16.5838C373.542 17.1562 376.446 14.3513 377.289 10.3187Z" fill="#0C0C0C"/>
<path d="M336.853 116.777C337.569 125.188 342.645 177.668 343.336 188.029H436.631C437.167 178.684 439.574 137.822 441.607 119.546C443.548 102.108 446.267 94.1727 444.032 88.7541C440.091 79.1963 427.544 74.9285 419.048 73.7782C413.859 73.0759 406.056 72.5728 406.056 72.5728C406.056 72.5728 405.395 85.9362 389.641 86.68C368.195 87.6894 369.628 72.5728 369.521 72.5728C366.047 72.5728 347.136 75.099 342.406 78.1805C335.727 82.5328 333.753 88.4646 333.675 93.914C333.586 100.19 336.042 107.235 336.853 116.777Z" fill="#EFBC81"/>
<path d="M341.584 167.348C341.517 167.348 341.453 167.323 341.404 167.279C341.354 167.234 341.324 167.172 341.318 167.106L337.783 126.685C337.777 126.615 337.799 126.545 337.844 126.491C337.889 126.437 337.954 126.404 338.024 126.397C338.059 126.394 338.095 126.397 338.128 126.408C338.162 126.418 338.193 126.435 338.22 126.457C338.246 126.48 338.269 126.508 338.285 126.539C338.3 126.57 338.31 126.604 338.312 126.639L341.847 167.059C341.853 167.129 341.831 167.199 341.786 167.253C341.741 167.307 341.676 167.341 341.606 167.347C341.599 167.348 341.591 167.348 341.584 167.348Z" fill="#0C0C0C"/>
<path d="M348.349 190.827L361.159 180.435L359.003 181.045C358.303 181.227 357.56 181.138 356.924 180.794C356.288 180.45 355.806 179.877 355.576 179.191C355.469 178.833 355.437 178.458 355.481 178.087C355.524 177.716 355.643 177.358 355.83 177.034C356.016 176.711 356.267 176.429 356.566 176.205C356.865 175.982 357.207 175.821 357.57 175.734L384.482 169.19L386.798 177.761C387.517 180.422 387.425 183.238 386.534 185.848C385.642 188.457 383.991 190.74 381.793 192.406L371.822 199.93C371.311 200.33 370.678 200.542 370.029 200.53C369.381 200.517 368.756 200.281 368.261 199.862C367.822 199.473 367.519 198.954 367.396 198.38C367.273 197.807 367.336 197.209 367.578 196.674C367.534 196.661 367.495 196.637 367.465 196.604C367.438 196.572 367.419 196.533 367.411 196.492C367.403 196.451 367.404 196.409 367.416 196.368L365.58 197.759C365.012 198.208 364.295 198.424 363.575 198.364C362.854 198.304 362.183 197.973 361.697 197.437C361.279 196.943 361.049 196.318 361.048 195.671C361.046 195.024 361.272 194.398 361.687 193.902C361.658 193.897 361.63 193.888 361.604 193.873L360.85 194.445C360.339 194.846 359.706 195.058 359.058 195.045C358.409 195.033 357.784 194.797 357.29 194.377C356.757 193.906 356.428 193.246 356.371 192.537C356.314 191.828 356.534 191.124 356.985 190.574C356.974 190.558 356.965 190.542 356.958 190.524L351.623 194.852C351.358 195.066 351.054 195.226 350.728 195.323C350.401 195.42 350.059 195.452 349.72 195.417C349.382 195.382 349.053 195.28 348.754 195.118C348.454 194.955 348.19 194.736 347.975 194.471C347.761 194.207 347.6 193.903 347.503 193.577C347.406 193.25 347.375 192.908 347.41 192.569C347.445 192.231 347.547 191.902 347.709 191.603C347.871 191.303 348.091 191.039 348.356 190.824L348.349 190.827Z" fill="#E98862"/>
<path opacity="0.2" d="M357.277 190.679C357.305 190.669 357.331 190.654 357.354 190.635L362.488 186.371C362.514 186.35 362.535 186.323 362.551 186.293C362.567 186.263 362.576 186.23 362.579 186.196C362.583 186.162 362.579 186.128 362.569 186.096C362.559 186.064 362.542 186.034 362.521 186.008C362.499 185.981 362.472 185.96 362.442 185.944C362.412 185.928 362.379 185.919 362.346 185.916C362.312 185.913 362.278 185.916 362.245 185.926C362.213 185.936 362.183 185.953 362.157 185.974L357.024 190.237C356.978 190.276 356.946 190.33 356.936 190.39C356.925 190.45 356.935 190.511 356.965 190.564C356.996 190.617 357.043 190.657 357.1 190.678C357.157 190.699 357.22 190.699 357.277 190.679Z" fill="#0A0A0A"/>
<path opacity="0.2" d="M361.8 193.899C361.828 193.889 361.854 193.875 361.876 193.856L365.937 190.536C365.99 190.493 366.023 190.43 366.03 190.362C366.037 190.294 366.017 190.226 365.973 190.173C365.93 190.12 365.867 190.086 365.799 190.079C365.731 190.073 365.663 190.093 365.61 190.136L361.55 193.456C361.502 193.494 361.47 193.548 361.459 193.608C361.448 193.668 361.458 193.73 361.488 193.783C361.518 193.836 361.566 193.877 361.623 193.898C361.68 193.919 361.743 193.92 361.8 193.899Z" fill="#0A0A0A"/>
<path opacity="0.2" d="M367.743 196.683C367.773 196.672 367.8 196.656 367.825 196.635L369.705 195.023C369.731 195.001 369.752 194.974 369.767 194.944C369.783 194.913 369.792 194.88 369.794 194.847C369.797 194.813 369.793 194.779 369.782 194.747C369.772 194.715 369.755 194.685 369.733 194.659C369.711 194.633 369.684 194.612 369.654 194.597C369.624 194.582 369.591 194.572 369.557 194.57C369.523 194.567 369.489 194.571 369.457 194.582C369.425 194.592 369.395 194.609 369.369 194.631L367.488 196.244C367.443 196.283 367.412 196.337 367.402 196.396C367.392 196.456 367.403 196.517 367.434 196.569C367.464 196.621 367.511 196.661 367.568 196.682C367.625 196.702 367.687 196.703 367.743 196.683Z" fill="#0A0A0A"/>
<path d="M461.57 165.374L461.472 164.938L444.443 89.6323L410.753 97.2467L424.045 156.028L370.802 169.109L377.354 199.146L448.307 185.616C448.466 185.584 448.703 185.536 448.864 185.5C451.02 185.012 453.059 184.105 454.864 182.83C456.67 181.555 458.206 179.937 459.386 178.068C460.566 176.199 461.366 174.116 461.741 171.938C462.115 169.76 462.057 167.53 461.57 165.374Z" fill="#EFBC81"/>
<path d="M370.541 169.165C370.527 169.098 370.54 169.028 370.576 168.969C370.613 168.911 370.671 168.869 370.738 168.853L423.744 155.836L415.125 117.777C415.116 117.743 415.113 117.706 415.118 117.671C415.122 117.635 415.134 117.601 415.153 117.57C415.171 117.539 415.196 117.512 415.225 117.491C415.254 117.47 415.287 117.454 415.322 117.447C415.357 117.439 415.394 117.438 415.429 117.444C415.465 117.451 415.498 117.464 415.528 117.484C415.558 117.504 415.584 117.53 415.604 117.56C415.623 117.59 415.637 117.624 415.643 117.66L424.319 155.974C424.335 156.042 424.324 156.113 424.287 156.173C424.25 156.233 424.192 156.276 424.124 156.292L371.114 169.309C371.114 169.309 371.469 170.858 371.569 171.381C371.577 171.449 371.558 171.517 371.515 171.571C371.473 171.625 371.411 171.659 371.343 171.667C371.275 171.675 371.206 171.656 371.152 171.613C371.099 171.571 371.064 171.508 371.056 171.44C370.934 170.867 370.541 169.165 370.541 169.165Z" fill="#0C0C0C"/>
<path d="M372.619 211.11L352.148 148.194C351.788 147.088 351.088 146.125 350.147 145.441C349.206 144.758 348.073 144.39 346.91 144.39H263.509C262.64 144.39 261.783 144.596 261.008 144.991C260.233 145.385 259.563 145.958 259.052 146.661C258.541 147.364 258.204 148.179 258.069 149.037C257.933 149.896 258.002 150.774 258.271 151.601L278.743 214.518C279.103 215.623 279.803 216.587 280.744 217.27C281.685 217.953 282.818 218.321 283.981 218.321H367.381C368.25 218.321 369.107 218.115 369.882 217.721C370.657 217.326 371.327 216.753 371.838 216.05C372.348 215.347 372.686 214.533 372.821 213.674C372.957 212.816 372.888 211.937 372.619 211.11Z" fill="#292A2E"/>
<path opacity="0.2" d="M372.619 211.11L352.148 148.194C351.788 147.088 351.088 146.125 350.147 145.441C349.206 144.758 348.073 144.39 346.91 144.39H263.509C262.64 144.39 261.783 144.596 261.008 144.991C260.233 145.385 259.563 145.958 259.052 146.661C258.541 147.364 258.204 148.179 258.069 149.037C257.933 149.896 258.002 150.774 258.271 151.601L278.743 214.518C279.103 215.623 279.803 216.587 280.744 217.27C281.685 217.953 282.818 218.321 283.981 218.321H367.381C368.25 218.321 369.107 218.115 369.882 217.721C370.657 217.326 371.327 216.753 371.838 216.05C372.348 215.347 372.686 214.533 372.821 213.674C372.957 212.816 372.888 211.937 372.619 211.11Z" fill="white"/>
<path d="M313.043 190.101C317.874 190.101 321.79 186.186 321.79 181.356C321.79 176.526 317.874 172.61 313.043 172.61C308.212 172.61 304.296 176.526 304.296 181.356C304.296 186.186 308.212 190.101 313.043 190.101Z" fill="white"/>
<path d="M236.818 0.53125H71.2877C63.619 0.53125 57.4023 6.74691 57.4023 14.4143V215.331C57.4023 222.999 63.619 229.214 71.2877 229.214H236.818C244.487 229.214 250.704 222.999 250.704 215.331V14.4143C250.704 6.74691 244.487 0.53125 236.818 0.53125Z" fill="white"/>
<path d="M236.818 229.745H71.2877C67.4654 229.741 63.8008 228.221 61.098 225.519C58.3952 222.816 56.8751 219.152 56.871 215.331V14.4143C56.8752 10.5927 58.3954 6.92882 61.0982 4.22652C63.8009 1.52422 67.4654 0.00421876 71.2877 0L236.818 0C240.64 0.00435935 244.304 1.52443 247.007 4.22671C249.71 6.92899 251.23 10.5928 251.234 14.4143V215.331C251.23 219.152 249.71 222.816 247.007 225.519C244.305 228.221 240.64 229.741 236.818 229.745ZM71.2877 1.06257C67.7472 1.06651 64.3529 2.47448 61.8494 4.97757C59.3459 7.48065 57.9377 10.8744 57.9337 14.4143V215.331C57.9377 218.87 59.3459 222.264 61.8494 224.767C64.3529 227.27 67.7472 228.678 71.2877 228.682H236.818C240.358 228.678 243.753 227.27 246.256 224.767C248.76 222.264 250.168 218.87 250.171 215.331V14.4143C250.168 10.8745 248.76 7.4807 246.256 4.9776C243.753 2.47449 240.358 1.06651 236.818 1.06257H71.2877Z" fill="#292A2E"/>
<path d="M55.1726 257.963C74.2121 257.963 89.6467 242.531 89.6467 223.495C89.6467 204.458 74.2121 189.026 55.1726 189.026C36.1332 189.026 20.6986 204.458 20.6986 223.495C20.6986 242.531 36.1332 257.963 55.1726 257.963Z" fill="#292A2E"/>
<path d="M48.016 218.996C47.5622 218.996 47.1269 218.816 46.8059 218.495C46.485 218.174 46.3046 217.739 46.3044 217.286V209.002C46.3044 204.422 50.2829 200.695 55.1726 200.695C60.0623 200.695 64.0407 204.422 64.0407 209.002V216.717C64.0447 216.944 64.0034 217.17 63.9192 217.381C63.835 217.592 63.7096 217.784 63.5503 217.947C63.391 218.109 63.201 218.237 62.9913 218.325C62.7817 218.413 62.5567 218.459 62.3294 218.459C62.1021 218.459 61.8771 218.413 61.6674 218.325C61.4578 218.237 61.2678 218.109 61.1085 217.947C60.9492 217.784 60.8238 217.592 60.7396 217.381C60.6554 217.17 60.6141 216.944 60.6181 216.717V209.002C60.6181 206.309 58.1738 204.117 55.1726 204.117C52.1714 204.117 49.727 206.309 49.727 209.002V217.287C49.7268 217.74 49.5464 218.175 49.2255 218.496C48.9047 218.816 48.4696 218.996 48.016 218.996Z" fill="white"/>
<path d="M66.0902 215.854H44.255C42.9816 215.854 41.9493 216.886 41.9493 218.159V238.723C41.9493 239.996 42.9816 241.028 44.255 241.028H66.0902C67.3636 241.028 68.3959 239.996 68.3959 238.723V218.159C68.3959 216.886 67.3636 215.854 66.0902 215.854Z" fill="white"/>
<path d="M52.9987 226.405C52.9985 226.813 53.113 227.213 53.3291 227.559C53.5452 227.904 53.8543 228.183 54.2209 228.361V231.701C54.2209 231.953 54.3209 232.194 54.4989 232.372C54.6769 232.55 54.9182 232.65 55.1699 232.65C55.4216 232.65 55.663 232.55 55.841 232.372C56.019 232.194 56.119 231.953 56.119 231.701V228.361C56.4682 228.192 56.7657 227.932 56.9805 227.609C57.1954 227.286 57.3197 226.911 57.3406 226.523C57.3616 226.136 57.2783 225.749 57.0996 225.405C56.9208 225.06 56.653 224.77 56.3241 224.564C55.9951 224.358 55.617 224.244 55.229 224.233C54.8409 224.223 54.4572 224.316 54.1175 224.504C53.7778 224.692 53.4947 224.967 53.2975 225.302C53.1003 225.636 52.9962 226.017 52.9961 226.405H52.9987Z" fill="#292A2E"/>
<path d="M222.363 114.637H85.7427C82.4814 114.637 79.8375 117.281 79.8375 120.542V139.691C79.8375 142.952 82.4814 145.596 85.7427 145.596H222.363C225.624 145.596 228.268 142.952 228.268 139.691V120.542C228.268 117.281 225.624 114.637 222.363 114.637Z" fill="white"/>
<path d="M222.363 146.126H85.7427C84.0362 146.124 82.4002 145.446 81.1936 144.239C79.9869 143.033 79.3081 141.397 79.3062 139.691V120.541C79.3081 118.835 79.9869 117.199 81.1935 115.993C82.4002 114.786 84.0362 114.108 85.7427 114.105H222.363C224.069 114.107 225.705 114.786 226.912 115.993C228.119 117.199 228.798 118.835 228.8 120.541V139.691C228.798 141.397 228.119 143.033 226.912 144.239C225.705 145.446 224.069 146.124 222.363 146.126ZM85.7427 115.168C84.3179 115.17 82.9518 115.736 81.9444 116.744C80.9369 117.751 80.3703 119.117 80.3689 120.541V139.691C80.3705 141.115 80.9371 142.481 81.9446 143.488C82.952 144.495 84.318 145.062 85.7427 145.064H222.363C223.787 145.062 225.153 144.495 226.161 143.488C227.168 142.481 227.735 141.115 227.737 139.691V120.541C227.735 119.117 227.169 117.751 226.161 116.744C225.154 115.736 223.787 115.17 222.363 115.168H85.7427Z" fill="#292A2E"/>
<path d="M222.363 158.88H85.7427C82.4814 158.88 79.8375 161.523 79.8375 164.784V183.934C79.8375 187.194 82.4814 189.838 85.7427 189.838H222.363C225.624 189.838 228.268 187.194 228.268 183.934V164.784C228.268 161.523 225.624 158.88 222.363 158.88Z" fill="white"/>
<path d="M222.363 190.369H85.7427C84.036 190.367 82.3997 189.688 81.193 188.481C79.9863 187.274 79.3077 185.638 79.3062 183.931V164.784C79.3081 163.078 79.9869 161.442 81.1936 160.235C82.4002 159.029 84.0362 158.35 85.7427 158.348H222.363C224.069 158.35 225.705 159.029 226.912 160.235C228.119 161.442 228.798 163.078 228.8 164.784V183.931C228.798 185.638 228.119 187.274 226.913 188.481C225.706 189.688 224.069 190.367 222.363 190.369ZM85.7427 159.411C84.318 159.413 82.952 159.979 81.9446 160.986C80.9371 161.994 80.3705 163.359 80.3689 164.784V183.931C80.3705 185.356 80.9371 186.722 81.9446 187.729C82.952 188.736 84.318 189.303 85.7427 189.304H222.363C223.787 189.303 225.153 188.736 226.161 187.729C227.169 186.722 227.735 185.356 227.737 183.931V164.784C227.735 163.359 227.169 161.993 226.161 160.986C225.153 159.979 223.787 159.412 222.363 159.411H85.7427Z" fill="#292A2E"/>
<path d="M154.053 91.6097C171.571 91.6097 185.772 77.4106 185.772 59.8951C185.772 42.3795 171.571 28.1804 154.053 28.1804C136.534 28.1804 122.333 42.3795 122.333 59.8951C122.333 77.4106 136.534 91.6097 154.053 91.6097Z" fill="white"/>
<path d="M154.053 92.141C147.674 92.141 141.438 90.2499 136.135 86.7066C130.831 83.1634 126.697 78.1273 124.256 72.2351C121.815 66.3429 121.177 59.8593 122.421 53.6042C123.665 47.3491 126.737 41.6035 131.247 37.0938C135.758 32.5841 141.504 29.513 147.761 28.2688C154.017 27.0246 160.501 27.6631 166.395 30.1038C172.288 32.5444 177.325 36.6774 180.868 41.9802C184.412 47.2831 186.304 53.5175 186.304 59.8951C186.294 68.4443 182.893 76.6407 176.847 82.6859C170.801 88.7311 162.603 92.1315 154.053 92.141ZM154.053 28.7118C147.884 28.7118 141.854 30.5406 136.725 33.9671C131.596 37.3936 127.599 42.2637 125.238 47.9618C122.878 53.6598 122.26 59.9297 123.463 65.9787C124.667 72.0277 127.637 77.584 131.999 81.9451C136.361 86.3061 141.918 89.2761 147.968 90.4793C154.018 91.6825 160.289 91.065 165.988 88.7048C171.687 86.3446 176.558 82.3477 179.985 77.2197C183.412 72.0916 185.241 66.0626 185.241 59.8951C185.232 51.6276 181.943 43.7014 176.096 37.8554C170.249 32.0094 162.321 28.721 154.053 28.7118Z" fill="#292A2E"/>
<path opacity="0.6" d="M185.068 59.8952C185.077 67.2358 182.472 74.3399 177.719 79.9348C174.792 76.5227 171.161 73.784 167.075 71.9066C162.99 70.0292 158.547 69.0576 154.051 69.0584C149.554 69.0592 145.112 70.0324 141.027 71.9113C136.942 73.7901 133.312 76.5301 130.386 79.9433C127.159 76.1348 124.899 71.6037 123.798 66.7349C122.697 61.866 122.787 56.8034 124.062 51.9772C125.337 47.151 127.758 42.7038 131.12 39.0134C134.482 35.3231 138.685 32.4986 143.373 30.7801C148.06 29.0616 153.093 28.4997 158.044 29.1423C162.995 29.7849 167.717 31.6129 171.811 34.4711C175.904 37.3293 179.246 41.1331 181.554 45.5593C183.862 49.9856 185.068 54.9035 185.068 59.8952Z" fill="#FFB661"/>
<path d="M177.719 79.9347C174.808 83.3718 171.183 86.1336 167.096 88.0282C163.01 89.9227 158.559 90.9045 154.055 90.9053C149.55 90.9062 145.099 89.9259 141.012 88.0328C136.924 86.1398 133.299 83.3792 130.386 79.9432C133.312 76.53 136.942 73.79 141.027 71.9112C145.112 70.0323 149.554 69.0592 154.051 69.0584C158.547 69.0575 162.99 70.0291 167.075 71.9065C171.161 73.7839 174.792 76.5226 177.719 79.9347Z" fill="white"/>
<path d="M154.053 63.2724C160.977 63.2724 166.59 57.6605 166.59 50.7378C166.59 43.8151 160.977 38.2031 154.053 38.2031C147.129 38.2031 141.516 43.8151 141.516 50.7378C141.516 57.6605 147.129 63.2724 154.053 63.2724Z" fill="white"/>
<g opacity="0.4">
<path d="M91.3375 178.129C93.42 178.129 95.1082 176.441 95.1082 174.359C95.1082 172.277 93.42 170.589 91.3375 170.589C89.2551 170.589 87.5669 172.277 87.5669 174.359C87.5669 176.441 89.2551 178.129 91.3375 178.129Z" fill="#292A2E"/>
<path d="M103.132 178.129C105.215 178.129 106.903 176.441 106.903 174.359C106.903 172.277 105.215 170.589 103.132 170.589C101.05 170.589 99.3618 172.277 99.3618 174.359C99.3618 176.441 101.05 178.129 103.132 178.129Z" fill="#292A2E"/>
<path d="M114.927 178.129C117.01 178.129 118.698 176.441 118.698 174.359C118.698 172.277 117.01 170.589 114.927 170.589C112.845 170.589 111.157 172.277 111.157 174.359C111.157 176.441 112.845 178.129 114.927 178.129Z" fill="#292A2E"/>
<path d="M126.722 178.129C128.805 178.129 130.493 176.441 130.493 174.359C130.493 172.277 128.805 170.589 126.722 170.589C124.64 170.589 122.952 172.277 122.952 174.359C122.952 176.441 124.64 178.129 126.722 178.129Z" fill="#292A2E"/>
<path d="M138.517 178.129C140.599 178.129 142.287 176.441 142.287 174.359C142.287 172.277 140.599 170.589 138.517 170.589C136.434 170.589 134.746 172.277 134.746 174.359C134.746 176.441 136.434 178.129 138.517 178.129Z" fill="#292A2E"/>
<path d="M150.312 178.129C152.394 178.129 154.082 176.441 154.082 174.359C154.082 172.277 152.394 170.589 150.312 170.589C148.229 170.589 146.541 172.277 146.541 174.359C146.541 176.441 148.229 178.129 150.312 178.129Z" fill="#292A2E"/>
<path d="M162.107 178.129C164.189 178.129 165.877 176.441 165.877 174.359C165.877 172.277 164.189 170.589 162.107 170.589C160.024 170.589 158.336 172.277 158.336 174.359C158.336 176.441 160.024 178.129 162.107 178.129Z" fill="#292A2E"/>
</g>
<g opacity="0.3">
<path d="M95.0774 129.889V131.164H90.235V129.889H95.0774Z" fill="black"/>
<path d="M101.095 129.889V131.164H96.2528V129.889H101.095Z" fill="black"/>
<path d="M107.113 129.889V131.164H102.27V129.889H107.113Z" fill="black"/>
<path d="M113.13 129.889V131.164H108.287V129.889H113.13Z" fill="black"/>
<path d="M119.148 129.889V131.164H114.305V129.889H119.148Z" fill="black"/>
<path d="M130.008 137.083C128.931 137.636 127.731 137.907 126.52 137.869C123.305 137.869 120.58 135.516 120.58 131.753C120.58 127.715 123.384 124.225 127.736 124.225C131.147 124.225 133.441 126.616 133.441 129.89C133.441 132.831 131.794 134.556 129.951 134.556C129.167 134.556 128.442 134.024 128.5 132.831H128.422C128.168 133.348 127.775 133.783 127.287 134.088C126.798 134.393 126.234 134.555 125.659 134.556C124.521 134.556 123.541 133.634 123.541 132.086C123.539 131.476 123.658 130.87 123.89 130.306C124.123 129.741 124.465 129.228 124.897 128.796C125.329 128.364 125.842 128.022 126.407 127.789C126.972 127.557 127.577 127.438 128.188 127.44C128.908 127.43 129.623 127.57 130.286 127.852L129.619 131.4C129.325 132.887 129.56 133.578 130.207 133.596C131.207 133.615 132.325 132.282 132.325 130.008C132.325 127.166 130.619 125.127 127.58 125.127C124.384 125.127 121.698 127.656 121.698 131.635C121.698 134.909 123.835 136.928 126.737 136.928C127.766 136.952 128.784 136.716 129.698 136.242L130.008 137.083ZM128.93 128.615C128.611 128.521 128.281 128.475 127.949 128.478C126.224 128.478 124.832 130.105 124.832 132.006C124.832 132.868 125.264 133.494 126.126 133.494C127.263 133.494 128.302 132.043 128.517 130.828L128.93 128.615Z" fill="black"/>
<path d="M139.612 129.889V131.164H134.77V129.889H139.612Z" fill="black"/>
<path d="M145.63 129.889V131.164H140.787V129.889H145.63Z" fill="black"/>
<path d="M151.647 129.889V131.164H146.805V129.889H151.647Z" fill="black"/>
</g>
</g>
<defs>
<clipPath id="clip0_2007_571">
<rect width="473" height="458" fill="white"/>
</clipPath>
</defs>
</svg>
