<svg width="392" height="380" viewBox="0 0 392 380" fill="none" xmlns="http://www.w3.org/2000/svg">
<g clip-path="url(#clip0_2008_1264)">
<path d="M281.025 380C342.315 380 392 375.411 392 369.75C392 364.089 342.315 359.5 281.025 359.5C219.735 359.5 170.049 364.089 170.049 369.75C170.049 375.411 219.735 380 281.025 380Z" fill="white"/>
<path opacity="0.1" d="M281.025 380C342.315 380 392 375.411 392 369.75C392 364.089 342.315 359.5 281.025 359.5C219.735 359.5 170.049 364.089 170.049 369.75C170.049 375.411 219.735 380 281.025 380Z" fill="#292A2E"/>
<path d="M96.8005 217.324H61.4266V227.626H96.8005V217.324Z" fill="#F4F4F4"/>
<path opacity="0.05" d="M70.812 217.324H66.177V227.626H70.812V217.324Z" fill="#292A2E"/>
<path d="M92.2806 219.563H73.0078V225.668H92.2806V219.563Z" fill="white"/>
<path d="M125.016 218.668L92.1477 204.298L88.0281 213.74L120.896 228.109L125.016 218.668Z" fill="#F4F4F4"/>
<path opacity="0.05" d="M125.016 218.668L92.1477 204.298L88.0281 213.74L120.896 228.109L125.016 218.668Z" fill="#292A2E"/>
<path d="M120.602 216.738L116.295 214.855L112.176 224.296L116.483 226.179L120.602 216.738Z" fill="white"/>
<path d="M113.36 216.015L95.4521 208.187L93.0109 213.781L110.918 221.61L113.36 216.015Z" fill="white"/>
<path opacity="0.05" d="M125.078 347.836H116.188V353.778H125.078V347.836Z" fill="#292A2E"/>
<path opacity="0.05" d="M34.1919 347.836H25.3024V353.778H34.1919V347.836Z" fill="#292A2E"/>
<path d="M133.226 228.109H17.1541V347.635H133.226V228.109Z" fill="#F4F4F4"/>
<path opacity="0.03" d="M133.226 228.109H17.1541V347.635H133.226V228.109Z" fill="#292A2E"/>
<path d="M154.736 228.11H38.6639V347.635H154.736V228.11Z" fill="#F4F4F4"/>
<path opacity="0.05" d="M146.587 347.836H137.698V353.778H146.587V347.836Z" fill="#292A2E"/>
<path opacity="0.05" d="M55.7021 347.836H46.8126V353.778H55.7021V347.836Z" fill="#292A2E"/>
<path opacity="0.7" d="M150.38 233.708H43.0215V256.671H150.38V233.708Z" fill="white"/>
<path opacity="0.7" d="M150.38 262.291H43.0215V285.255H150.38V262.291Z" fill="white"/>
<path opacity="0.7" d="M150.38 290.875H43.0215V313.838H150.38V290.875Z" fill="white"/>
<path opacity="0.05" d="M96.7006 248.402C98.4734 248.402 99.9106 246.964 99.9106 245.189C99.9106 243.415 98.4734 241.976 96.7006 241.976C94.9279 241.976 93.4907 243.415 93.4907 245.189C93.4907 246.964 94.9279 248.402 96.7006 248.402Z" fill="#292A2E"/>
<path opacity="0.05" d="M96.7006 276.986C98.4734 276.986 99.9106 275.548 99.9106 273.773C99.9106 271.999 98.4734 270.56 96.7006 270.56C94.9279 270.56 93.4907 271.999 93.4907 273.773C93.4907 275.548 94.9279 276.986 96.7006 276.986Z" fill="#292A2E"/>
<path opacity="0.05" d="M96.7006 305.57C98.4734 305.57 99.9106 304.132 99.9106 302.357C99.9106 300.583 98.4734 299.144 96.7006 299.144C94.9279 299.144 93.4907 300.583 93.4907 302.357C93.4907 304.132 94.9279 305.57 96.7006 305.57Z" fill="#292A2E"/>
<path opacity="0.7" d="M150.38 320.103H43.0215V343.066H150.38V320.103Z" fill="white"/>
<path opacity="0.05" d="M96.7006 334.798C98.4734 334.798 99.9106 333.359 99.9106 331.585C99.9106 329.81 98.4734 328.372 96.7006 328.372C94.9279 328.372 93.4907 329.81 93.4907 331.585C93.4907 333.359 94.9279 334.798 96.7006 334.798Z" fill="#292A2E"/>
<path d="M58.3576 109.475L126.992 109.475L126.992 20.0531L58.3576 20.0531L58.3576 109.475Z" fill="#F4F4F4"/>
<path d="M58.358 20.0532H56.1315V109.475H58.358V20.0532Z" fill="#F4F4F4"/>
<path opacity="0.05" d="M58.358 20.0532H56.1315V109.475H58.358V20.0532Z" fill="#292A2E"/>
<path opacity="0.05" d="M70.8607 93.1858H114.49V36.3422L70.8607 36.3422V93.1858Z" fill="#292A2E"/>
<path opacity="0.03" d="M70.8608 93.1858H73.1345V36.3422H70.8608V93.1858Z" fill="#292A2E"/>
<path d="M2.22614 188.168H58.3577L58.3577 131.466H2.22614L2.22614 188.168Z" fill="#F4F4F4"/>
<path opacity="0.05" d="M12.4513 177.839H48.1326L48.1326 141.795H12.4513L12.4513 177.839Z" fill="#292A2E"/>
<path d="M2.22655 131.466H0V188.168H2.22655V131.466Z" fill="#F4F4F4"/>
<path opacity="0.05" d="M2.22655 131.466H0V188.168H2.22655V131.466Z" fill="#292A2E"/>
<path opacity="0.03" d="M12.4513 177.839H14.725L14.725 141.795H12.4513L12.4513 177.839Z" fill="#292A2E"/>
<path d="M344.509 19.8403H201.28V163.208H344.509V19.8403Z" fill="#F4F4F4"/>
<path d="M201.28 19.8403H199.638V163.208H201.28V19.8403Z" fill="#F4F4F4"/>
<path opacity="0.05" d="M201.28 19.8403H199.638V163.208H201.28V19.8403Z" fill="#292A2E"/>
<path opacity="0.05" d="M235.978 118.632V81.1223H266.674V102.915H314.222V141.501H334.431V163.208H314.222H310.329H208.17V118.632H235.978Z" fill="#292A2E"/>
<path opacity="0.34" d="M262.734 85.1951H240.38V89.2677H262.734V85.1951Z" fill="#FFFFFA"/>
<path opacity="0.34" d="M262.734 93.6348H240.38V97.7074H262.734V93.6348Z" fill="#FFFFFA"/>
<path opacity="0.34" d="M262.734 102.074H240.38V106.147H262.734V102.074Z" fill="#FFFFFA"/>
<path opacity="0.34" d="M216.254 122.585H212.134V126.658H216.254V122.585Z" fill="#FFFFFA"/>
<path opacity="0.34" d="M216.254 131.025H212.134V135.098H216.254V131.025Z" fill="#FFFFFA"/>
<path opacity="0.34" d="M216.254 139.464H212.134V143.537H216.254V139.464Z" fill="#FFFFFA"/>
<path opacity="0.34" d="M223.876 122.585H219.756V126.658H223.876V122.585Z" fill="#FFFFFA"/>
<path opacity="0.34" d="M223.876 131.025H219.756V135.098H223.876V131.025Z" fill="#FFFFFA"/>
<path opacity="0.34" d="M223.876 139.464H219.756V143.537H223.876V139.464Z" fill="#FFFFFA"/>
<path opacity="0.34" d="M231.292 122.585H227.172V126.658H231.292V122.585Z" fill="#FFFFFA"/>
<path opacity="0.34" d="M231.292 131.025H227.172V135.098H231.292V131.025Z" fill="#FFFFFA"/>
<path opacity="0.34" d="M231.292 139.464H227.172V143.537H231.292V139.464Z" fill="#FFFFFA"/>
<path d="M201.28 90.7196H230.1V19.8398H232.483V90.7196H310.329V19.8398H312.713V90.7196H344.509V93.1053H312.713V163.208H310.329V93.1053H232.483V163.208H230.1V93.1053H201.28V90.7196Z" fill="white"/>
<path d="M350.214 163.035H195.574V167.802H350.214V163.035Z" fill="#F4F4F4"/>
<path opacity="0.1" d="M350.214 163.035H195.574V167.802H350.214V163.035Z" fill="#292A2E"/>
<path opacity="0.1" d="M195.574 163.035H193.341V167.802H195.574V163.035Z" fill="#292A2E"/>
<path opacity="0.1" d="M195.574 163.035H193.341V167.802H195.574V163.035Z" fill="#292A2E"/>
<path d="M319.949 187.595C298.022 187.595 280.246 193.583 280.246 200.97V216.892H359.653V200.97C359.653 193.583 341.877 187.595 319.949 187.595Z" fill="#367CFF"/>
<path opacity="0.49" d="M319.949 187.595C298.022 187.595 280.246 193.583 280.246 200.97V216.892H359.653V200.97C359.653 193.583 341.877 187.595 319.949 187.595Z" fill="white"/>
<path opacity="0.49" d="M348.836 200.971V216.891H280.244V200.971C280.244 194.201 295.173 188.607 314.54 187.723C333.909 188.607 348.836 194.201 348.836 200.971Z" fill="white"/>
<path d="M359.652 371.603H360.984L359.652 215.48L358.33 216.814L359.272 325.87L312.234 326.67L311.285 216.802L309.964 216.814L310.914 326.693L282.518 327.176L281.565 216.802L280.244 215.491L281.576 371.603L282.886 371.592L282.529 328.499L310.925 328.016L311.285 371.603L312.606 371.592L312.246 327.993L359.284 327.193L359.652 371.603Z" fill="#292A2E"/>
<path d="M239.892 348.229C239.892 348.229 237.531 360.481 226.071 361.163C214.611 361.846 217.096 370.985 217.096 370.985H260.889V349.084L239.892 348.229Z" fill="#E98862"/>
<path d="M264.878 311.38C264.878 311.38 268.162 323.416 258.18 329.093C248.198 334.769 254.458 341.871 254.458 341.871L293.753 322.519L284.096 302.868L264.878 311.38Z" fill="#E98862"/>
<path d="M260.72 319.335L231.111 207.507C228.865 195.153 232.246 189.798 237.456 184.597C246.61 175.457 284.54 156.005 284.54 156.005L330.044 155.881C342.111 155.881 353.972 167.79 353.972 179.868C353.972 191.945 341.706 202.187 329.64 202.187L273.605 207.786L288.795 310.179L260.72 319.335Z" fill="#262626"/>
<path d="M288.794 310.178L282.814 269.867L252.52 288.365L260.72 319.335L288.794 310.178Z" fill="#0C0C0C"/>
<path d="M295.661 178.635C295.661 178.635 276.533 182.902 257.587 201.865C246.101 213.363 247.043 234.169 248.766 274.187L267.582 246.368L288.22 209.11L295.661 178.635Z" fill="#0C0C0C"/>
<path d="M361.893 155.869L330.99 155.723L330.979 156.13H321.621C321.621 156.13 298.181 177.719 279.31 191.323C265.584 201.219 257.21 210.653 256.486 220.935C254.719 246 234.797 352.897 234.797 352.897L264.779 357.441L291.091 229.691C291.091 229.691 332.231 210.705 341.747 204.099C350.708 197.878 357.037 195.473 360.003 188.684C365.124 176.958 361.893 155.869 361.893 155.869Z" fill="#262626"/>
<path d="M327.223 163.66L277.091 164.325L305.213 181.137L328.613 169.042C329.177 168.739 329.623 168.255 329.879 167.668C330.136 167.081 330.188 166.425 330.028 165.805C329.868 165.185 329.505 164.636 328.996 164.247C328.488 163.859 327.863 163.652 327.223 163.66Z" fill="#292A2E"/>
<path opacity="0.2" d="M327.223 163.66L277.091 164.325L305.213 181.137L328.613 169.042C329.177 168.739 329.623 168.255 329.879 167.668C330.136 167.081 330.188 166.425 330.028 165.805C329.868 165.185 329.505 164.636 328.996 164.247C328.488 163.859 327.863 163.652 327.223 163.66Z" fill="white"/>
<path d="M277.378 73.6343L263.198 119.624L234.795 156.846L251.387 175.91L285.176 138.16C286.733 136.929 287.951 135.321 288.715 133.488L289.241 132.212L308.759 84.9431L277.378 73.6343Z" fill="#EFBC81"/>
<path d="M299.222 24.8172C299.222 24.8172 293.508 20.4973 292.093 10.5615C290.996 2.86811 298.086 7.8523 298.086 7.8523C298.086 7.8523 297.351 2.30476 301.389 2.85532C305.427 3.40589 307.687 9.23334 307.687 9.23334" fill="#0C0C0C"/>
<path d="M322.259 3.50464C322.259 3.50464 342.293 5.65445 335.051 32.8292L333.278 32.9482L329.68 33.1898" fill="#0C0C0C"/>
<path d="M302.578 61.2092C302.666 61.1978 303.644 77.4309 322.483 76.0172C335.527 75.0391 340.178 61.1863 340.477 61.1863C339.071 60.887 337.333 60.433 336.642 60.2774C335.137 59.9277 333.773 59.1275 332.733 57.9832C331.693 56.8389 331.026 55.4048 330.82 53.8716C330.439 51.5706 331.084 39.7976 330.887 37.4692L310.866 41.9425C311.146 46.8601 313.104 58.2598 306.242 60.2774C305.099 60.6106 303.869 60.9192 302.578 61.2092Z" fill="#E98862"/>
<path opacity="0.52" d="M310.586 55.6186C310.899 54.6068 311.101 53.5637 311.188 52.5079C311.408 50.0986 311.364 47.6725 311.056 45.2729C315.126 44.724 318.96 43.0433 322.123 40.4219C322.495 41.7963 324.54 47.8018 323.973 49.1057C322.904 51.5743 317.875 55.6186 310.586 55.6186Z" fill="#0C0C0C"/>
<path d="M314.718 52.4056C322.617 51.6964 332.072 46.7007 332.208 35.9676L332.331 26.283C332.468 15.5503 326.946 6.77784 316.85 6.64912C306.755 6.52085 299.098 15.1254 298.961 25.8586L298.907 30.1458C298.914 31.6183 299.021 33.0885 299.228 34.5464C299.746 38.4034 300.549 44.2675 303.164 48.2343C305.633 51.9794 309.671 52.8583 314.718 52.4056Z" fill="#E98862"/>
<path opacity="0.52" d="M311.053 42.5949C309.423 42.6688 307.798 42.3582 306.31 41.6881C306.249 41.6606 306.202 41.6104 306.178 41.5482C306.153 41.486 306.154 41.4169 306.181 41.3555C306.207 41.2941 306.256 41.2454 306.317 41.2198C306.379 41.1942 306.448 41.1938 306.51 41.2187C309.716 42.5874 312.628 42.3872 314.929 40.6394C314.976 40.6027 315.024 40.5684 315.074 40.5367C315.132 40.5095 315.198 40.505 315.259 40.5242C315.32 40.5434 315.371 40.5848 315.403 40.6403C315.435 40.6958 315.445 40.7612 315.431 40.8237C315.417 40.8862 315.38 40.9411 315.327 40.9775C315.309 40.989 315.279 41.0124 315.239 41.0441C314.029 41.9667 312.572 42.5066 311.053 42.5949Z" fill="#0C0C0C"/>
<path opacity="0.52" d="M311.128 45.0128C310.833 45.0309 310.538 45.0239 310.244 44.9916C310.211 44.9881 310.179 44.978 310.15 44.962C310.12 44.946 310.094 44.9244 310.073 44.8984C310.052 44.8723 310.036 44.8424 310.027 44.8103C310.018 44.7782 310.014 44.7445 310.018 44.7113C310.022 44.678 310.032 44.6457 310.048 44.6163C310.064 44.5869 310.085 44.5609 310.111 44.5399C310.137 44.5189 310.167 44.5032 310.199 44.4937C310.231 44.4842 310.265 44.4811 310.298 44.4847C312.062 44.672 312.905 43.8631 312.94 43.8283C312.988 43.7804 313.053 43.7535 313.12 43.7534C313.188 43.7533 313.253 43.7801 313.301 43.8279C313.348 43.8756 313.375 43.9405 313.375 44.0081C313.376 44.0757 313.349 44.1406 313.301 44.1885C312.694 44.7063 311.926 44.9976 311.128 45.0128Z" fill="#0C0C0C"/>
<path d="M302.296 32.2096C302.982 32.2096 303.539 31.6523 303.539 30.9648C303.539 30.2773 302.982 29.72 302.296 29.72C301.609 29.72 301.052 30.2773 301.052 30.9648C301.052 31.6523 301.609 32.2096 302.296 32.2096Z" fill="#0C0C0C"/>
<path d="M314.445 31.4465C315.132 31.4465 315.689 30.8891 315.689 30.2016C315.689 29.5141 315.132 28.9568 314.445 28.9568C313.758 28.9568 313.201 29.5141 313.201 30.2016C313.201 30.8891 313.758 31.4465 314.445 31.4465Z" fill="#0C0C0C"/>
<path d="M331.54 39.2317C334.608 39.2709 337.137 36.0169 337.177 32.9458C337.217 29.8747 334.75 28.1494 331.682 28.1106L330.075 30.148L328.903 39.1982L331.54 39.2317Z" fill="#E98862"/>
<path d="M328.487 34.2946C328.487 34.2946 327.451 19.1075 322.85 18.1694C319.786 17.5448 312.355 21.8956 305.473 20.5815C302.462 20.0085 299.603 20.7526 299.313 22.1764C299.197 22.7402 297.322 14.6386 302.037 8.49199C305.791 3.59905 318.076 2.21492 323.666 3.81945C339.142 8.26366 332.313 28.7765 332.313 28.7765L331.623 34.0124L328.487 34.2946Z" fill="#0C0C0C"/>
<g opacity="0.52">
<path d="M309.198 39.0112C309.192 39.0116 309.185 39.0116 309.179 39.0112C308.19 39.0015 306.533 38.8741 306.539 38.134C306.546 37.5204 308.29 30.9158 308.489 30.1646C308.506 30.1 308.548 30.0448 308.606 30.0112C308.664 29.9776 308.733 29.9683 308.797 29.9855C308.862 30.0026 308.917 30.0447 308.951 30.1025C308.984 30.1603 308.993 30.2292 308.976 30.2938C308.201 33.219 307.048 37.7223 307.043 38.1401C307.139 38.3165 308.16 38.4981 309.183 38.5087C309.248 38.51 309.309 38.5362 309.355 38.5817C309.401 38.6272 309.428 38.6886 309.43 38.7532C309.432 38.8178 309.409 38.8807 309.366 38.9289C309.323 38.9771 309.263 39.0068 309.198 39.0121V39.0112Z" fill="#0C0C0C"/>
</g>
<path d="M305.826 24.2152C304.786 23.9289 303.689 23.9289 302.65 24.2152C302.14 24.3526 301.653 24.566 301.206 24.8482C300.764 25.1245 300.359 25.4557 299.999 25.8338C299.933 25.9012 299.895 25.9915 299.894 26.086C299.893 26.1805 299.928 26.2719 299.992 26.3411C300.056 26.4104 300.145 26.4522 300.239 26.4579C300.333 26.4636 300.426 26.4327 300.498 26.3716L300.52 26.3522C300.853 26.044 301.223 25.779 301.621 25.5636C302.012 25.3492 302.434 25.1952 302.871 25.1069C303.731 24.9264 304.624 24.9764 305.459 25.252L305.494 25.2643C305.63 25.3084 305.779 25.2974 305.907 25.2337C306.036 25.1699 306.135 25.0584 306.183 24.9229C306.23 24.7874 306.224 24.6386 306.163 24.5081C306.103 24.3776 305.995 24.2756 305.861 24.224L305.826 24.2152Z" fill="#0C0C0C"/>
<path d="M313.183 24.8396C313.974 24.4551 314.852 24.2864 315.729 24.3508C316.173 24.3797 316.611 24.476 317.027 24.6364C317.451 24.7971 317.852 25.0104 318.222 25.2712L318.246 25.287C318.325 25.3383 318.421 25.3569 318.514 25.3389C318.607 25.3208 318.689 25.2677 318.744 25.1904C318.799 25.1131 318.821 25.0177 318.807 24.9241C318.793 24.8305 318.744 24.7459 318.669 24.688C318.263 24.3611 317.817 24.087 317.342 23.8721C316.862 23.652 316.351 23.5055 315.826 23.4374C314.759 23.2918 313.671 23.4375 312.679 23.8593C312.613 23.8882 312.553 23.93 312.502 23.9822C312.452 24.0344 312.412 24.0961 312.386 24.1636C312.359 24.2311 312.346 24.3033 312.347 24.3758C312.349 24.4484 312.364 24.52 312.393 24.5866C312.452 24.721 312.561 24.8268 312.697 24.8805C312.765 24.9071 312.837 24.9201 312.909 24.9189C312.982 24.9176 313.053 24.9021 313.12 24.8731L313.151 24.8586L313.183 24.8396Z" fill="#0C0C0C"/>
<path d="M312.679 8.56122C313.377 5.21543 312.103 2.1181 309.832 1.64316C307.561 1.16823 305.154 3.49553 304.455 6.84133C303.757 10.1871 305.032 13.2844 307.303 13.7594C309.574 14.2343 311.981 11.907 312.679 8.56122Z" fill="#0C0C0C"/>
<path d="M279.168 96.889C279.761 103.868 283.968 147.41 284.54 156.006H361.859C362.304 148.253 364.298 114.35 365.983 99.1865C367.591 84.7184 369.845 78.1345 367.993 73.6387C364.726 65.7086 354.328 62.1677 347.287 61.2133C342.987 60.6306 336.52 60.2131 336.52 60.2131C336.52 60.2131 335.973 71.3007 322.916 71.9178C305.142 72.7554 306.33 60.2131 306.242 60.2131C303.362 60.2131 287.689 62.3092 283.77 64.8658C278.235 68.4769 276.599 73.3985 276.534 77.9198C276.46 83.1271 278.496 88.9726 279.168 96.889Z" fill="#EFBC81"/>
<path d="M283.088 138.847C283.033 138.848 282.98 138.827 282.939 138.79C282.898 138.753 282.873 138.701 282.868 138.646L279.939 105.11C279.934 105.052 279.952 104.994 279.989 104.949C280.027 104.904 280.081 104.876 280.139 104.871C280.168 104.868 280.197 104.871 280.225 104.879C280.252 104.888 280.278 104.902 280.3 104.921C280.323 104.939 280.341 104.962 280.354 104.988C280.367 105.014 280.375 105.043 280.377 105.072L283.307 138.608C283.312 138.666 283.294 138.724 283.256 138.769C283.219 138.813 283.165 138.841 283.107 138.847C283.101 138.847 283.095 138.848 283.088 138.847Z" fill="#0C0C0C"/>
<path d="M288.695 158.328L299.312 149.706L297.525 150.211C296.945 150.363 296.329 150.289 295.802 150.003C295.275 149.718 294.875 149.243 294.685 148.674C294.596 148.377 294.57 148.065 294.606 147.757C294.642 147.45 294.74 147.152 294.895 146.884C295.05 146.616 295.257 146.382 295.505 146.196C295.753 146.011 296.036 145.878 296.337 145.806L318.641 140.376L320.56 147.487C321.156 149.695 321.08 152.032 320.341 154.197C319.602 156.361 318.234 158.256 316.412 159.638L308.148 165.88C307.725 166.213 307.201 166.388 306.663 166.378C306.125 166.368 305.608 166.172 305.198 165.824C304.834 165.501 304.582 165.07 304.48 164.595C304.378 164.119 304.431 163.623 304.631 163.179C304.595 163.168 304.563 163.148 304.538 163.121C304.515 163.094 304.5 163.062 304.493 163.028C304.486 162.994 304.488 162.959 304.498 162.926L302.975 164.08C302.505 164.451 301.911 164.631 301.314 164.581C300.716 164.531 300.16 164.257 299.757 163.812C299.411 163.402 299.221 162.883 299.219 162.347C299.218 161.81 299.405 161.291 299.749 160.879C299.725 160.875 299.702 160.867 299.681 160.856L299.055 161.33C298.632 161.662 298.108 161.838 297.57 161.828C297.032 161.817 296.515 161.622 296.105 161.273C295.663 160.882 295.39 160.335 295.343 159.747C295.296 159.158 295.479 158.574 295.852 158.118C295.843 158.105 295.836 158.091 295.83 158.077L291.409 161.667C291.189 161.845 290.937 161.978 290.667 162.059C290.396 162.139 290.113 162.165 289.832 162.136C289.551 162.107 289.279 162.022 289.031 161.888C288.783 161.753 288.563 161.571 288.386 161.352C288.208 161.132 288.075 160.88 287.995 160.609C287.914 160.338 287.888 160.054 287.917 159.773C287.946 159.492 288.031 159.22 288.165 158.972C288.3 158.723 288.482 158.504 288.701 158.326L288.695 158.328Z" fill="#E98862"/>
<path opacity="0.2" d="M296.094 158.205C296.118 158.197 296.139 158.184 296.158 158.168L300.413 154.631C300.434 154.613 300.452 154.591 300.465 154.566C300.478 154.541 300.486 154.514 300.489 154.486C300.491 154.458 300.488 154.429 300.48 154.403C300.472 154.376 300.458 154.351 300.44 154.329C300.422 154.307 300.4 154.29 300.375 154.277C300.35 154.263 300.323 154.255 300.295 154.253C300.267 154.25 300.239 154.253 300.212 154.262C300.185 154.27 300.16 154.284 300.139 154.302L295.885 157.839C295.846 157.871 295.82 157.916 295.811 157.965C295.802 158.015 295.811 158.066 295.836 158.11C295.861 158.153 295.901 158.187 295.948 158.204C295.995 158.222 296.047 158.222 296.094 158.205Z" fill="#0A0A0A"/>
<path opacity="0.2" d="M299.843 160.877C299.866 160.868 299.887 160.856 299.906 160.841L303.271 158.087C303.315 158.051 303.343 157.999 303.349 157.942C303.354 157.886 303.337 157.829 303.301 157.785C303.266 157.741 303.214 157.713 303.157 157.708C303.101 157.702 303.044 157.719 303 157.755L299.635 160.509C299.596 160.541 299.569 160.586 299.56 160.635C299.551 160.685 299.559 160.737 299.584 160.781C299.609 160.825 299.649 160.859 299.696 160.876C299.744 160.894 299.796 160.894 299.843 160.877Z" fill="#0A0A0A"/>
<path opacity="0.2" d="M304.768 163.186C304.793 163.177 304.816 163.164 304.836 163.147L306.394 161.809C306.415 161.791 306.433 161.768 306.446 161.743C306.458 161.718 306.466 161.691 306.468 161.663C306.47 161.635 306.467 161.607 306.458 161.58C306.449 161.553 306.436 161.529 306.417 161.507C306.399 161.486 306.377 161.468 306.352 161.456C306.327 161.443 306.299 161.435 306.271 161.433C306.243 161.431 306.215 161.434 306.189 161.443C306.162 161.452 306.137 161.466 306.116 161.484L304.557 162.822C304.519 162.855 304.494 162.899 304.486 162.949C304.477 162.998 304.487 163.049 304.512 163.092C304.537 163.135 304.576 163.168 304.623 163.185C304.67 163.203 304.721 163.203 304.768 163.186Z" fill="#0A0A0A"/>
<path d="M382.527 137.21L382.446 136.848L368.333 74.3672L340.413 80.6848L351.428 129.455L307.303 140.308L312.734 165.23L371.536 154.004C371.668 153.978 371.864 153.938 371.998 153.908C373.784 153.504 375.474 152.751 376.97 151.693C378.466 150.635 379.74 149.292 380.718 147.742C381.695 146.191 382.358 144.463 382.669 142.656C382.98 140.849 382.931 138.998 382.527 137.21Z" fill="#EFBC81"/>
<path d="M307.087 140.356C307.076 140.3 307.086 140.241 307.116 140.193C307.147 140.145 307.195 140.11 307.25 140.096L351.179 129.297L344.036 97.719C344.028 97.6903 344.026 97.6602 344.03 97.6306C344.034 97.601 344.044 97.5725 344.059 97.5468C344.074 97.5211 344.095 97.4989 344.119 97.4813C344.143 97.4637 344.171 97.4513 344.2 97.4447C344.229 97.4381 344.259 97.4374 344.288 97.4429C344.318 97.4483 344.345 97.4596 344.37 97.4761C344.395 97.4927 344.416 97.5141 344.433 97.5391C344.449 97.5641 344.46 97.5922 344.465 97.6216L351.656 129.41C351.669 129.467 351.659 129.526 351.629 129.576C351.599 129.625 351.55 129.661 351.494 129.675L307.562 140.475C307.562 140.475 307.856 141.76 307.939 142.194C307.946 142.25 307.93 142.307 307.894 142.351C307.859 142.396 307.808 142.425 307.751 142.431C307.695 142.438 307.638 142.422 307.594 142.386C307.549 142.351 307.52 142.3 307.514 142.243C307.413 141.767 307.087 140.356 307.087 140.356Z" fill="#0C0C0C"/>
<path d="M308.809 175.157L291.843 122.956C291.545 122.038 290.965 121.239 290.185 120.672C289.405 120.105 288.466 119.8 287.503 119.8H218.384C217.663 119.8 216.953 119.97 216.311 120.298C215.669 120.625 215.114 121.1 214.69 121.684C214.267 122.267 213.988 122.943 213.875 123.655C213.763 124.368 213.82 125.097 214.043 125.782L231.009 177.984C231.307 178.901 231.888 179.701 232.667 180.267C233.447 180.834 234.386 181.14 235.35 181.14H304.468C305.189 181.14 305.899 180.969 306.541 180.641C307.183 180.314 307.738 179.839 308.161 179.255C308.585 178.672 308.864 177.996 308.977 177.284C309.089 176.572 309.032 175.843 308.809 175.157Z" fill="#292A2E"/>
<path opacity="0.2" d="M308.809 175.157L291.843 122.956C291.545 122.038 290.965 121.239 290.185 120.672C289.405 120.105 288.466 119.8 287.503 119.8H218.384C217.663 119.8 216.953 119.97 216.311 120.298C215.669 120.625 215.114 121.1 214.69 121.684C214.267 122.267 213.988 122.943 213.875 123.655C213.763 124.368 213.82 125.097 214.043 125.782L231.009 177.984C231.307 178.901 231.888 179.701 232.667 180.267C233.447 180.834 234.386 181.14 235.35 181.14H304.468C305.189 181.14 305.899 180.969 306.541 180.641C307.183 180.314 307.738 179.839 308.161 179.255C308.585 178.672 308.864 177.996 308.977 177.284C309.089 176.572 309.032 175.843 308.809 175.157Z" fill="white"/>
<path d="M259.435 157.726C263.439 157.726 266.684 154.477 266.684 150.47C266.684 146.462 263.439 143.214 259.435 143.214C255.432 143.214 252.186 146.462 252.186 150.47C252.186 154.477 255.432 157.726 259.435 157.726Z" fill="white"/>
<path d="M196.264 0.440918H59.0798C52.7244 0.440918 47.5723 5.59802 47.5723 11.9596V178.659C47.5723 185.021 52.7244 190.178 59.0798 190.178H196.264C202.619 190.178 207.771 185.021 207.771 178.659V11.9596C207.771 5.59802 202.619 0.440918 196.264 0.440918Z" fill="white"/>
<path d="M196.263 190.618H59.0799C55.9121 190.615 52.875 189.354 50.6351 187.112C48.3952 184.869 47.1353 181.829 47.132 178.659V11.9595C47.1355 8.78872 48.3954 5.7488 50.6353 3.50672C52.8752 1.26464 55.9122 0.00350028 59.0799 0L196.263 0C199.431 0.00361693 202.468 1.26481 204.708 3.50688C206.948 5.74895 208.207 8.78879 208.211 11.9595V178.659C208.208 181.829 206.948 184.869 204.708 187.111C202.468 189.354 199.431 190.615 196.263 190.618ZM59.0799 0.881611C56.1457 0.884878 53.3326 2.05306 51.2578 4.12986C49.183 6.20666 48.016 9.02246 48.0127 11.9595V178.659C48.016 181.596 49.183 184.411 51.2578 186.488C53.3326 188.565 56.1457 189.733 59.0799 189.736H196.263C199.198 189.733 202.011 188.565 204.085 186.488C206.16 184.411 207.327 181.596 207.33 178.659V11.9595C207.327 9.0225 206.16 6.2067 204.085 4.12988C202.011 2.05307 199.198 0.884878 196.263 0.881611H59.0799Z" fill="#292A2E"/>
<path d="M45.7245 214.031C61.5035 214.031 74.295 201.227 74.295 185.432C74.295 169.638 61.5035 156.834 45.7245 156.834C29.9455 156.834 17.1541 169.638 17.1541 185.432C17.1541 201.227 29.9455 214.031 45.7245 214.031Z" fill="#292A2E"/>
<path d="M39.7935 181.7C39.4173 181.7 39.0566 181.551 38.7906 181.284C38.5246 181.018 38.3751 180.657 38.375 180.281V173.408C38.375 169.608 41.6721 166.516 45.7245 166.516C49.7768 166.516 53.074 169.608 53.074 173.408V179.809C53.0773 179.998 53.043 180.185 52.9733 180.36C52.9035 180.535 52.7995 180.695 52.6675 180.829C52.5355 180.964 52.378 181.07 52.2043 181.143C52.0306 181.216 51.8441 181.254 51.6557 181.254C51.4673 181.254 51.2808 181.216 51.1071 181.143C50.9334 181.07 50.7759 180.964 50.6439 180.829C50.5119 180.695 50.408 180.535 50.3382 180.36C50.2684 180.185 50.2342 179.998 50.2375 179.809V173.408C50.2375 171.173 48.2117 169.355 45.7245 169.355C43.2372 169.355 41.2115 171.173 41.2115 173.408V180.282C41.2112 180.658 41.0617 181.019 40.7958 181.285C40.5299 181.551 40.1694 181.7 39.7935 181.7Z" fill="white"/>
<path d="M54.7724 179.093H36.6764C35.6211 179.093 34.7656 179.949 34.7656 181.005V198.067C34.7656 199.124 35.6211 199.98 36.6764 199.98H54.7724C55.8278 199.98 56.6832 199.124 56.6832 198.067V181.005C56.6832 179.949 55.8278 179.093 54.7724 179.093Z" fill="white"/>
<path d="M43.9229 187.847C43.9227 188.186 44.0176 188.517 44.1967 188.804C44.3758 189.091 44.6319 189.322 44.9357 189.47V192.241C44.9357 192.45 45.0186 192.65 45.1661 192.798C45.3136 192.945 45.5136 193.028 45.7222 193.028C45.9308 193.028 46.1309 192.945 46.2784 192.798C46.4259 192.65 46.5088 192.45 46.5088 192.241V189.47C46.7982 189.33 47.0447 189.114 47.2228 188.846C47.4008 188.578 47.5039 188.267 47.5212 187.945C47.5386 187.623 47.4696 187.303 47.3214 187.017C47.1733 186.731 46.9514 186.491 46.6787 186.32C46.4061 186.149 46.0927 186.054 45.7712 186.045C45.4496 186.036 45.1315 186.114 44.85 186.27C44.5685 186.426 44.3339 186.654 44.1705 186.932C44.007 187.209 43.9208 187.525 43.9207 187.847H43.9229Z" fill="#292A2E"/>
<path d="M184.284 95.114H71.0596C68.3567 95.114 66.1656 97.3072 66.1656 100.013V115.901C66.1656 118.607 68.3567 120.8 71.0596 120.8H184.284C186.987 120.8 189.178 118.607 189.178 115.901V100.013C189.178 97.3072 186.987 95.114 184.284 95.114Z" fill="white"/>
<path d="M184.284 121.24H71.0595C69.6453 121.238 68.2894 120.675 67.2894 119.674C66.2894 118.673 65.7269 117.316 65.7252 115.9V100.013C65.7269 98.5969 66.2894 97.2397 67.2894 96.2386C68.2894 95.2375 69.6452 94.6744 71.0595 94.6726H184.284C185.698 94.6742 187.054 95.2374 188.054 96.2384C189.054 97.2395 189.617 98.5968 189.618 100.013V115.9C189.617 117.316 189.054 118.673 188.054 119.674C187.054 120.675 185.698 121.238 184.284 121.24ZM71.0595 95.5542C69.8787 95.5555 68.7466 96.0256 67.9117 96.8615C67.0767 97.6973 66.6071 98.8305 66.606 100.013V115.9C66.6073 117.082 67.0769 118.216 67.9118 119.051C68.7467 119.887 69.8788 120.357 71.0595 120.358H184.284C185.464 120.357 186.596 119.887 187.431 119.051C188.266 118.216 188.736 117.082 188.738 115.9V100.013C188.736 98.8305 188.267 97.6973 187.432 96.8614C186.597 96.0256 185.464 95.5555 184.284 95.5542H71.0595Z" fill="#292A2E"/>
<path d="M184.284 131.822H71.0596C68.3567 131.822 66.1656 134.015 66.1656 136.72V152.609C66.1656 155.314 68.3567 157.508 71.0596 157.508H184.284C186.987 157.508 189.178 155.314 189.178 152.609V136.72C189.178 134.015 186.987 131.822 184.284 131.822Z" fill="white"/>
<path d="M184.284 157.948H71.0595C69.6451 157.946 68.289 157.383 67.2889 156.382C66.2889 155.38 65.7265 154.023 65.7252 152.607V136.72C65.7269 135.305 66.2894 133.948 67.2894 132.947C68.2894 131.946 69.6453 131.382 71.0595 131.381H184.284C185.698 131.382 187.054 131.945 188.054 132.946C189.054 133.947 189.617 135.305 189.618 136.72V152.607C189.617 154.023 189.055 155.38 188.054 156.382C187.054 157.383 185.698 157.946 184.284 157.948ZM71.0595 132.262C69.8788 132.264 68.7467 132.734 67.9118 133.57C67.0769 134.405 66.6073 135.538 66.606 136.72V152.607C66.6073 153.789 67.0769 154.922 67.9118 155.758C68.7467 156.593 69.8788 157.064 71.0595 157.065H184.284C185.464 157.064 186.597 156.594 187.432 155.758C188.267 154.922 188.736 153.789 188.738 152.607V136.72C188.736 135.538 188.267 134.405 187.432 133.569C186.597 132.734 185.464 132.264 184.284 132.262H71.0595Z" fill="#292A2E"/>
<path d="M127.671 76.0083C142.19 76.0083 153.959 64.2273 153.959 49.6948C153.959 35.1623 142.19 23.3813 127.671 23.3813C113.153 23.3813 101.384 35.1623 101.384 49.6948C101.384 64.2273 113.153 76.0083 127.671 76.0083Z" fill="white"/>
<path d="M127.671 76.449C122.385 76.449 117.217 74.8799 112.822 71.9401C108.427 69.0003 105.001 64.8218 102.978 59.9331C100.955 55.0444 100.425 49.665 101.457 44.4752C102.488 39.2854 105.034 34.5182 108.772 30.7766C112.51 27.0349 117.272 24.4868 122.457 23.4545C127.642 22.4222 133.016 22.952 137.9 24.977C142.784 27.002 146.958 30.4311 149.895 34.8308C152.832 39.2305 154.4 44.4032 154.4 49.6947C154.392 56.7879 151.573 63.5884 146.562 68.6041C141.552 73.6197 134.758 76.441 127.671 76.449ZM127.671 23.8221C122.559 23.8221 117.562 25.3395 113.311 28.1824C109.061 31.0253 105.748 35.0661 103.791 39.7937C101.835 44.5213 101.323 49.7234 102.321 54.7422C103.318 59.761 105.78 64.3711 109.394 67.9894C113.009 71.6078 117.615 74.0719 122.629 75.0702C127.643 76.0685 132.84 75.5562 137.563 73.5979C142.286 71.6397 146.323 68.3235 149.163 64.0688C152.003 59.814 153.519 54.8118 153.519 49.6947C153.511 42.8352 150.786 36.2589 145.94 31.4085C141.094 26.5581 134.524 23.8298 127.671 23.8221Z" fill="#292A2E"/>
<path opacity="0.6" d="M153.375 49.6947C153.383 55.7852 151.224 61.6794 147.285 66.3214C144.859 63.4904 141.85 61.2181 138.464 59.6605C135.078 58.1028 131.396 57.2967 127.67 57.2974C123.944 57.298 120.262 58.1055 116.876 59.6643C113.491 61.2232 110.483 63.4966 108.058 66.3285C105.383 63.1686 103.51 59.4091 102.598 55.3695C101.685 51.3299 101.76 47.1295 102.817 43.1252C103.874 39.1209 105.88 35.431 108.666 32.3692C111.452 29.3073 114.936 26.9639 118.82 25.538C122.705 24.1122 126.876 23.646 130.979 24.1792C135.082 24.7123 138.996 26.2291 142.389 28.6004C145.781 30.9718 148.551 34.1278 150.464 37.8003C152.376 41.4727 153.375 45.5531 153.375 49.6947Z" fill="#FFB661"/>
<path d="M147.285 66.3214C144.872 69.1731 141.868 71.4646 138.481 73.0365C135.095 74.6084 131.406 75.423 127.673 75.4237C123.94 75.4244 120.251 74.6111 116.864 73.0404C113.476 71.4697 110.471 69.1793 108.058 66.3285C110.483 63.4966 113.491 61.2232 116.876 59.6643C120.262 58.1055 123.944 57.298 127.67 57.2974C131.396 57.2967 135.078 58.1028 138.464 59.6605C141.85 61.2181 144.859 63.4904 147.285 66.3214Z" fill="white"/>
<path d="M127.672 52.4969C133.41 52.4969 138.062 47.8407 138.062 42.097C138.062 36.3532 133.41 31.697 127.672 31.697C121.934 31.697 117.282 36.3532 117.282 42.097C117.282 47.8407 121.934 52.4969 127.672 52.4969Z" fill="white"/>
<g opacity="0.4">
<path d="M75.6962 147.792C77.4221 147.792 78.8211 146.392 78.8211 144.664C78.8211 142.937 77.4221 141.536 75.6962 141.536C73.9704 141.536 72.5713 142.937 72.5713 144.664C72.5713 146.392 73.9704 147.792 75.6962 147.792Z" fill="#292A2E"/>
<path d="M85.4714 147.792C87.1972 147.792 88.5963 146.392 88.5963 144.664C88.5963 142.937 87.1972 141.536 85.4714 141.536C83.7455 141.536 82.3464 142.937 82.3464 144.664C82.3464 146.392 83.7455 147.792 85.4714 147.792Z" fill="#292A2E"/>
<path d="M95.2463 147.792C96.9721 147.792 98.3712 146.392 98.3712 144.664C98.3712 142.937 96.9721 141.536 95.2463 141.536C93.5204 141.536 92.1213 142.937 92.1213 144.664C92.1213 146.392 93.5204 147.792 95.2463 147.792Z" fill="#292A2E"/>
<path d="M105.021 147.792C106.747 147.792 108.146 146.392 108.146 144.664C108.146 142.937 106.747 141.536 105.021 141.536C103.296 141.536 101.896 142.937 101.896 144.664C101.896 146.392 103.296 147.792 105.021 147.792Z" fill="#292A2E"/>
<path d="M114.796 147.792C116.522 147.792 117.921 146.392 117.921 144.664C117.921 142.937 116.522 141.536 114.796 141.536C113.07 141.536 111.671 142.937 111.671 144.664C111.671 146.392 113.07 147.792 114.796 147.792Z" fill="#292A2E"/>
<path d="M124.571 147.792C126.297 147.792 127.696 146.392 127.696 144.664C127.696 142.937 126.297 141.536 124.571 141.536C122.845 141.536 121.446 142.937 121.446 144.664C121.446 146.392 122.845 147.792 124.571 147.792Z" fill="#292A2E"/>
<path d="M134.346 147.792C136.072 147.792 137.471 146.392 137.471 144.664C137.471 142.937 136.072 141.536 134.346 141.536C132.621 141.536 131.221 142.937 131.221 144.664C131.221 146.392 132.621 147.792 134.346 147.792Z" fill="#292A2E"/>
</g>
<g opacity="0.3">
<path d="M78.7956 107.768V108.826H74.7825V107.768H78.7956Z" fill="black"/>
<path d="M83.7829 107.768V108.826H79.7698V107.768H83.7829Z" fill="black"/>
<path d="M88.7698 107.768V108.826H84.7566V107.768H88.7698Z" fill="black"/>
<path d="M93.7566 107.768V108.826H89.7434V107.768H93.7566Z" fill="black"/>
<path d="M98.7443 107.768V108.826H94.7307V107.768H98.7443Z" fill="black"/>
<path d="M107.744 113.737C106.852 114.196 105.857 114.42 104.854 114.389C102.189 114.389 99.9307 112.437 99.9307 109.314C99.9307 105.964 102.255 103.069 105.861 103.069C108.688 103.069 110.59 105.053 110.59 107.769C110.59 110.209 109.224 111.64 107.697 111.64C107.048 111.64 106.447 111.199 106.495 110.209H106.43C106.22 110.638 105.894 110.999 105.489 111.252C105.084 111.505 104.617 111.64 104.14 111.64C103.197 111.64 102.385 110.876 102.385 109.591C102.383 109.085 102.481 108.582 102.674 108.114C102.867 107.645 103.151 107.22 103.509 106.861C103.867 106.503 104.292 106.219 104.76 106.026C105.228 105.833 105.73 105.735 106.236 105.736C106.833 105.728 107.425 105.844 107.975 106.078L107.422 109.022C107.178 110.256 107.373 110.829 107.909 110.844C108.738 110.859 109.664 109.753 109.664 107.867C109.664 105.509 108.251 103.818 105.732 103.818C103.084 103.818 100.858 105.915 100.858 109.217C100.858 111.933 102.629 113.608 105.034 113.608C105.886 113.628 106.73 113.432 107.487 113.039L107.744 113.737ZM106.851 106.711C106.587 106.633 106.313 106.595 106.038 106.597C104.608 106.597 103.455 107.947 103.455 109.525C103.455 110.24 103.813 110.759 104.527 110.759C105.47 110.759 106.331 109.556 106.509 108.547L106.851 106.711Z" fill="black"/>
<path d="M115.704 107.768V108.826H111.691V107.768H115.704Z" fill="black"/>
<path d="M120.691 107.768V108.826H116.677V107.768H120.691Z" fill="black"/>
<path d="M125.678 107.768V108.826H121.665V107.768H125.678Z" fill="black"/>
</g>
</g>
<defs>
<clipPath id="clip0_2008_1264">
<rect width="392" height="380" fill="white"/>
</clipPath>
</defs>
</svg>
