<svg width="24" height="24" viewBox="0 0 24 24" fill="none" xmlns="http://www.w3.org/2000/svg">
<path d="M18.2229 12.5329L11.9596 11.5024L12.8581 10.8626L14.3623 11.0708L15.8645 10.8626L18.2229 12.5329ZM14.3623 0.69675C14.6609 0.69675 14.9565 0.755574 15.2324 0.869863C15.5082 0.984151 15.7589 1.15166 15.97 1.36283C16.1811 1.57401 16.3485 1.82469 16.4627 2.10058C16.5769 2.37647 16.6356 2.67216 16.6355 2.97075C16.6355 4.227 15.8349 5.24475 14.3623 5.24475C14.0602 5.25024 13.76 5.19547 13.4793 5.08366C13.1986 4.97184 12.943 4.80522 12.7274 4.59351C12.5118 4.38181 12.3406 4.12927 12.2237 3.85065C12.1068 3.57202 12.0466 3.2729 12.0466 2.97075C12.0466 2.6686 12.1068 2.36948 12.2237 2.09085C12.3406 1.81223 12.5118 1.55969 12.7274 1.34799C12.943 1.13628 13.1986 0.969658 13.4793 0.857843C13.76 0.746027 14.0602 0.691263 14.3623 0.69675ZM14.9281 17.1315V22.6271C14.9281 22.9564 15.059 23.2722 15.2918 23.5051C15.5247 23.7379 15.8405 23.8688 16.1698 23.8688C16.4991 23.8688 16.8149 23.7379 17.0477 23.5051C17.2806 23.2722 17.4114 22.9564 17.4114 22.6271V17.1315C17.4034 16.8075 17.2691 16.4994 17.0371 16.2731C16.8052 16.0467 16.4939 15.92 16.1698 15.92C15.8457 15.92 15.5344 16.0467 15.3024 16.2731C15.0704 16.4994 14.9361 16.8075 14.9281 17.1315ZM22.5339 20.2691C22.5338 20.4601 22.458 20.6432 22.3231 20.7783C22.1882 20.9134 22.0052 20.9895 21.8143 20.9899H18.0073V17.3914H19.6539V13.7951C19.6539 13.3991 19.9768 13.0759 20.3731 13.0759H21.8143C22.2103 13.0759 22.5339 13.3988 22.5339 13.7951V20.2691ZM14.3341 20.9895H6.94327C6.84865 20.9895 6.75496 20.9709 6.66756 20.9346C6.58016 20.8984 6.50075 20.8453 6.43388 20.7784C6.36702 20.7114 6.314 20.632 6.27786 20.5445C6.24172 20.4571 6.22317 20.3634 6.22327 20.2688V13.7948C6.22346 13.6039 6.29941 13.421 6.43441 13.2861C6.56942 13.1513 6.75244 13.0755 6.94327 13.0755H8.38364C8.78077 13.0755 9.10364 13.3984 9.10364 13.7948V17.391H14.3341V20.9895ZM10.4424 13.2251C10.389 13.55 10.4667 13.8828 10.6585 14.1505C10.8503 14.4181 11.1406 14.5986 11.4654 14.6524L16.8875 15.546C17.2124 15.5991 17.5451 15.5211 17.8125 15.3292C18.0799 15.1372 18.2603 14.847 18.314 14.5223C18.3406 14.3614 18.3352 14.1969 18.2982 14.0382C18.2612 13.8794 18.1932 13.7296 18.0982 13.5971C18.0032 13.4646 17.883 13.3522 17.7445 13.2663C17.606 13.1803 17.4519 13.1225 17.291 13.0961L11.8689 12.2018C11.5441 12.1487 11.2114 12.2266 10.944 12.4185C10.6766 12.6103 10.4962 12.9004 10.4424 13.2251ZM4.32727 6.41888C2.55802 6.41888 1.11914 4.98 1.11914 3.20963C1.11914 1.43925 2.55802 0 4.32727 0C6.09652 0 7.53727 1.43963 7.53727 3.20963C7.53727 4.98 6.09652 6.41888 4.32727 6.41888ZM4.32727 5.62463C4.96765 5.62383 5.58159 5.36911 6.03445 4.91632C6.48731 4.46354 6.74212 3.84964 6.74302 3.20925C6.74302 1.87838 5.65814 0.793875 4.32727 0.793875C2.99527 0.793875 1.91302 1.87838 1.91302 3.20925C1.91341 3.84953 2.16786 4.46349 2.6205 4.91634C3.07314 5.36919 3.68699 5.62393 4.32727 5.62463Z" fill="#CCCCCC"/>
<path d="M4.34395 3.63352C4.3072 3.65041 4.26675 3.65769 4.22641 3.65467C4.18608 3.65165 4.14716 3.63844 4.11333 3.61627C4.08451 3.59781 4.05997 3.5734 4.04134 3.54469C4.02272 3.51598 4.01044 3.48362 4.00533 3.44977L4.00195 1.58452C4.00441 1.52217 4.03091 1.46319 4.0759 1.41994C4.12088 1.37669 4.18086 1.35254 4.24327 1.35254C4.30567 1.35254 4.36565 1.37669 4.41063 1.41994C4.45562 1.46319 4.48212 1.52217 4.48458 1.58452V3.03165L5.7217 2.4489C5.7503 2.43525 5.78132 2.42737 5.81297 2.42573C5.84462 2.4241 5.87628 2.42872 5.90614 2.43935C5.936 2.44997 5.96347 2.46639 5.98697 2.48766C6.01046 2.50892 6.02953 2.53462 6.04308 2.56327C6.07029 2.62118 6.07346 2.68751 6.05188 2.74774C6.03031 2.80797 5.98575 2.8572 5.92795 2.88465L4.34395 3.63315V3.63352ZM14.3625 7.0539L17.3103 6.5739V8.64615L18.7657 9.74078C18.9056 9.88177 18.849 10.0423 18.816 10.0876C18.7764 10.1403 18.7177 10.1751 18.6525 10.1845C18.5874 10.1939 18.5211 10.1772 18.4683 10.1379L16.6316 8.74965C16.4486 8.62598 16.2245 8.57897 16.0072 8.61871C15.79 8.65845 15.597 8.78177 15.4697 8.96221C15.3423 9.14264 15.2908 9.36581 15.3262 9.5838C15.3616 9.80179 15.481 9.99722 15.6588 10.1281L18.7972 12.3324C18.9431 12.4352 19.1505 12.5053 19.3571 12.5053C19.5333 12.5053 19.7407 12.4321 19.8952 12.3226C20.2245 12.0887 20.3456 11.6735 20.2338 11.291L19.0683 7.84702C18.7571 6.99127 17.9722 5.98403 16.7932 5.98403H11.9313C10.7527 5.98403 9.96783 6.99127 9.6562 7.84702L8.4907 11.291C8.37858 11.6735 8.50045 12.089 8.8297 12.3226C8.98308 12.4321 9.1912 12.5053 9.3667 12.5053C9.57445 12.5053 9.7822 12.4355 9.9277 12.3324L13.0661 10.1281C13.2439 9.99722 13.3633 9.80179 13.3987 9.5838C13.4341 9.36581 13.3826 9.14264 13.2552 8.96221C13.1279 8.78177 12.9349 8.65845 12.7177 8.61871C12.5004 8.57897 12.2763 8.62598 12.0933 8.74965L10.2555 10.1379C10.2027 10.177 10.1366 10.1937 10.0717 10.1843C10.0067 10.1749 9.94804 10.1401 9.90858 10.0876C9.87526 10.0331 9.86197 9.96862 9.871 9.90532C9.88004 9.84202 9.91082 9.78384 9.95808 9.74078C9.95808 9.74078 10.9451 8.9994 11.4142 8.64615V6.5739L14.3625 7.05428V7.0539Z" fill="#CCCCCC"/>
</svg>
