<svg width="32" height="32" viewBox="0 0 32 32" fill="none" xmlns="http://www.w3.org/2000/svg">
<path d="M25.25 16H12.895M8.534 16H6.75M8.534 16C8.534 15.4218 8.76368 14.8673 9.17251 14.4585C9.58134 14.0497 10.1358 13.82 10.714 13.82C11.2922 13.82 11.8467 14.0497 12.2555 14.4585C12.6643 14.8673 12.894 15.4218 12.894 16C12.894 16.5782 12.6643 17.1327 12.2555 17.5415C11.8467 17.9503 11.2922 18.18 10.714 18.18C10.1358 18.18 9.58134 17.9503 9.17251 17.5415C8.76368 17.1327 8.534 16.5782 8.534 16ZM25.25 22.607H19.502M19.502 22.607C19.502 23.1853 19.2718 23.7404 18.8628 24.1494C18.4539 24.5583 17.8993 24.788 17.321 24.788C16.7428 24.788 16.1883 24.5573 15.7795 24.1485C15.3707 23.7397 15.141 23.1852 15.141 22.607M19.502 22.607C19.502 22.0287 19.2718 21.4746 18.8628 21.0657C18.4539 20.6567 17.8993 20.427 17.321 20.427C16.7428 20.427 16.1883 20.6567 15.7795 21.0655C15.3707 21.4743 15.141 22.0288 15.141 22.607M15.141 22.607H6.75M25.25 9.39301H22.145M17.784 9.39301H6.75M17.784 9.39301C17.784 8.81484 18.0137 8.26035 18.4225 7.85152C18.8313 7.44269 19.3858 7.21301 19.964 7.21301C20.2503 7.21301 20.5338 7.2694 20.7983 7.37896C21.0627 7.48851 21.3031 7.64909 21.5055 7.85152C21.7079 8.05395 21.8685 8.29427 21.9781 8.55876C22.0876 8.82325 22.144 9.10673 22.144 9.39301C22.144 9.67929 22.0876 9.96277 21.9781 10.2273C21.8685 10.4918 21.7079 10.7321 21.5055 10.9345C21.3031 11.1369 21.0627 11.2975 20.7983 11.4071C20.5338 11.5166 20.2503 11.573 19.964 11.573C19.3858 11.573 18.8313 11.3433 18.4225 10.9345C18.0137 10.5257 17.784 9.97118 17.784 9.39301Z" stroke="#454545" stroke-width="1.5" stroke-miterlimit="10" stroke-linecap="round"/>
</svg>
